<svg xmlns="http://www.w3.org/2000/svg" version="1.1" xmlns:xlink="http://www.w3.org/1999/xlink" xmlns:svgjs="http://svgjs.com/svgjs" width="515" height="515"><svg version="1.1" id="SvgjsSvg1108" x="0px" y="0px" viewBox="0 0 514.99999 514.99998" xml:space="preserve" sodipodi:docname="Elyvian Logo Tight.svg" width="515" height="515" inkscape:version="1.3.2 (091e20e, 2023-11-25, custom)" xmlns:inkscape="http://www.inkscape.org/namespaces/inkscape" xmlns:sodipodi="http://sodipodi.sourceforge.net/DTD/sodipodi-0.dtd" xmlns="http://www.w3.org/2000/svg" xmlns:svg="http://www.w3.org/2000/svg"><defs id="SvgjsDefs1107"></defs><sodipodi:namedview id="SvgjsSodipodi:namedview1106" pagecolor="#ffffff" bordercolor="#000000" borderopacity="0.25" inkscape:showpageshadow="2" inkscape:pageopacity="0.0" inkscape:pagecheckerboard="0" inkscape:deskcolor="#d1d1d1" inkscape:zoom="2.2058481" inkscape:cx="379.4459" inkscape:cy="323.00502" inkscape:window-width="3840" inkscape:window-height="2071" inkscape:window-x="-9" inkscape:window-y="-9" inkscape:window-maximized="1" inkscape:current-layer="Layer_2"></sodipodi:namedview>
<path d="m 237.19743,195.32603 c 0,0 -9.76,13.29 -6.94,34.24 2.82,20.94 26.71,38.94 67.18,30.47 0,0 -9.06,9.53 -26.82,11.41 -17.76,1.88 -41.29,-5.88 -52.94,-34.35 -11.65,-28.47 8,-67.53 44.82,-70.35 36.82,-2.82 59.88,13.29 71.53,27.65 11.65,14.35 21.88,39.29 18.71,65.29 0,0 -1.65,-41.76 -26,-52.12 0,0 15.76,16.59 18.71,44.71 2.94,28.12 2.59,47.29 -13.29,66.59 -15.88,19.29 -33.06,30.59 -63.29,31.65 -30.24,1.06 -40.47,-10 -40.47,-10 0,0 29.65,6.82 56.47,-0.59 26.82,-7.41 45.76,-29.41 48.71,-55.41 2.94,-26 -3.65,-50 -35.29,-66.82 0,0 12.35,13.29 19.65,36.94 7.29,23.65 -3.18,46.82 -13.41,54.24 0,0 9.88,-18.94 6,-37.18 -3.88,-18.24 -12.47,-25.35 -19.94,-28.18 0,0 3.47,2.12 5.59,5.41 0,0 -9,3.47 -27.29,-4.88 -18.29,-8.35 -23.59,-23.24 -24.71,-32.41 0,0 -1.24,14.41 9.65,29.24 -0.04,-0.02 -29.75,-13.49 -16.63,-45.55 z" id="SvgjsPath1105"></path>
<path d="m 215.13743,233.46603 c 4.52,14.98 15.03,28.59 29.58,34.87 2.04,0.96 4.18,1.66 6.33,2.37 -17.95,-3.98 -31.83,-19.61 -35.91,-37.24 z" id="SvgjsPath1104"></path>
<path d="m 232.07743,229.85603 c 2.88,11.55 13.53,19.11 24.45,22.31 14.47,4.18 29.77,3.23 44.64,1.78 -6.56,1.45 -13.25,2.47 -20,2.78 -19.1,1.29 -45.48,-4.82 -49.09,-26.87 z" id="SvgjsPath1103"></path>
<path d="m 251.04743,253.23603 c 15.3,4.83 31.61,5.89 47.47,3.71 -0.98,0.21 -1.96,0.42 -2.95,0.61 -14.79,2.78 -30.58,1.43 -44.52,-4.32 z" id="SvgjsPath1102"></path>
<path d="m 238.42743,245.46603 c 7.98,8.63 19.81,12.32 31.15,13.88 6.39,0.74 12.94,0.7 19.34,0.3 2.58,-0.26 5.15,-0.54 7.74,-0.77 -2.55,0.45 -5.12,0.84 -7.69,1.26 -4.52,0.44 -9.1,0.73 -13.65,0.6 -1.31,-0.06 -4.51,-0.35 -5.85,-0.44 -11.44,-1.48 -23.61,-5.53 -31.04,-14.83 z" id="SvgjsPath1101"></path>
<path d="m 234.45743,223.67603 c 3.4,11.47 12.73,20.65 23.74,25.01 8.2,3.47 17.36,4.53 26.22,4.58 0,0 4.49,-0.08 4.49,-0.08 l 4.49,-0.25 c -10.38,1.46 -21.21,1.28 -31.31,-1.78 -12.93,-3.84 -24.6,-14.03 -27.63,-27.48 z" id="SvgjsPath1100"></path>
<path d="m 231.13743,213.32603 c -0.29,4.08 -0.49,8.15 -0.59,12.24 -0.24,-4.09 -0.04,-8.2 0.59,-12.24 z" id="SvgjsPath1099"></path>
<path d="m 234.13743,232.44603 c 2.35,4.66 5.65,8.92 9.94,11.94 -4.48,-2.76 -7.88,-7.15 -9.94,-11.94 z" id="SvgjsPath1098"></path>
<path d="m 236.95743,227.38603 c 5.55,9.59 14.23,17.28 24.41,21.65 -1.28,-0.53 -2.61,-0.96 -3.86,-1.58 -8.77,-4.19 -16.21,-11.36 -20.55,-20.07 z" id="SvgjsPath1097"></path>
<path d="m 242.95743,234.08603 c 3.92,3.95 8.42,7.26 13.29,9.94 -5.17,-2.06 -9.87,-5.53 -13.29,-9.94 z" id="SvgjsPath1096"></path>
<path d="m 242.45743,233.02603 c 3.71,3.39 7.74,6.38 12.03,9 -4.61,-2.02 -8.79,-5.13 -12.03,-9 z" id="SvgjsPath1095"></path>
<path d="m 252.95743,233.46603 c 9.09,9.92 21.84,15.93 35.12,17.56 -0.84,-0.03 -1.68,-0.08 -2.52,-0.14 -12.61,-0.82 -25.04,-7.22 -32.6,-17.42 z" id="SvgjsPath1094"></path>
<path d="m 310.01743,277.38603 c 1.08,6.11 0.2,12.54 -2.06,18.29 1.61,-5.95 2.47,-12.12 2.06,-18.29 z" id="SvgjsPath1093"></path>
<path d="m 307.13743,295.67603 c -1.23,5.18 -3.23,10.35 -6.59,14.53 2.8,-4.56 4.7,-9.54 6.59,-14.53 z" id="SvgjsPath1092"></path>
<path d="m 307.95743,298.49603 c -1.6,4.9 -3.48,10.02 -7,13.88 2.98,-4.27 4.76,-9.19 7,-13.88 z" id="SvgjsPath1091"></path>
<path d="m 320.95743,266.02603 c 1.19,7.31 0.1,14.99 -2.71,21.82 2.16,-7.04 3.22,-14.44 2.71,-21.82 z" id="SvgjsPath1090"></path>
<path d="m 322.48743,270.20603 c 0.43,4.25 0.11,8.64 -1.24,12.71 0.68,-4.22 0.99,-8.44 1.24,-12.71 z" id="SvgjsPath1089"></path>
<path d="m 331.60743,271.14603 c 0.73,5.44 0.77,11.33 -1.53,16.41 1.64,-5.31 1.58,-10.91 1.53,-16.41 z" id="SvgjsPath1088"></path>
<path d="m 326.60743,300.32603 c -4.42,10.2 -11.54,19.36 -20.42,26.06 -2.94,2.29 -6.23,4.08 -9.58,5.65 0.79,-0.49 1.57,-0.98 2.37,-1.45 0.61,-0.34 1.76,-1.09 2.31,-1.52 10.63,-7.28 19.05,-17.56 25.32,-28.74 z" id="SvgjsPath1087"></path>
<path d="m 283.81743,338.85603 c 21.85,-5.56 38.5,-22.98 46.15,-43.82 -0.84,2.64 -1.76,5.27 -2.88,7.81 -7.67,17.84 -23.96,32.43 -43.27,36.01 z" id="SvgjsPath1086"></path>
<path d="m 346.51743,256.09603 c 2.17,13.59 2.94,27.97 -1.24,41.26 3.52,-13.44 2.74,-27.58 1.24,-41.26 z" id="SvgjsPath1085"></path>
<path d="m 350.17743,277.94603 c 0.29,2.91 -0.03,5.88 -0.84,8.69 0.48,-2.89 0.8,-5.77 0.84,-8.69 z" id="SvgjsPath1084"></path>
<path d="m 306.01743,226.05603 c 5.81,7.72 10.03,16.71 12.24,26.12 -2.86,-9.22 -6.99,-18.02 -12.24,-26.12 z" id="SvgjsPath1083"></path>
<path d="m 311.66743,233.69603 c 2.27,3.65 4.08,7.63 5.21,11.78 -1.46,-4.05 -3.24,-7.97 -5.21,-11.78 z" id="SvgjsPath1082"></path>
<path d="m 313.81743,234.79603 c 0.94,0.95 1.6,2.2 1.88,3.5 -0.61,-1.19 -1.21,-2.34 -1.88,-3.5 z" id="SvgjsPath1081"></path>
<path d="m 338.42743,217.79603 c 5.71,7.03 8.48,16.05 10.6,24.73 0,0 0.75,3.8 0.75,3.8 -2.64,-9.87 -5.45,-20.05 -11.35,-28.53 z" id="SvgjsPath1080"></path>
<path d="m 256.25743,239.05603 c 0,0 3.04,4.38 5.12,6.41 2.08,2.03 15.74,7.41 26.71,5.56 0,0 -9.72,-0.15 -18.72,-3.4 -9,-3.25 -13.11,-8.57 -13.11,-8.57 z" id="SvgjsPath1079"></path>
<g id="SvgjsG1078" transform="translate(-165.92257,-41.253975)">
	<g id="SvgjsG1077">
		<path d="m 651.05,284.94 c -2.47,1.97 -4.97,3.9 -7.41,5.9 -3.79,3.12 -7.55,6.27 -11.28,9.45 -0.98,0.83 -1.79,1.85 -2.71,2.76 -0.14,0.14 -0.46,0.18 -0.68,0.14 -0.13,-0.02 -0.3,-0.28 -0.31,-0.44 -0.11,-1.74 -0.21,-3.48 0.11,-5.21 0.61,-3.27 1.79,-6.32 3.51,-9.17 0.26,-0.43 0.52,-0.87 0.88,-1.49 -0.48,-0.01 -0.77,-0.09 -1.04,-0.02 -5.43,1.3 -10.65,3.11 -15.39,6.13 -1.41,0.9 -2.81,1.84 -4.23,2.73 -0.65,0.41 -1.33,0.79 -2.02,1.14 -0.96,0.48 -1.98,0.57 -3.02,0.35 -0.95,-0.2 -1.89,-0.45 -2.84,-0.61 -2.98,-0.53 -5.97,-1.08 -8.96,-1.53 -1.53,-0.23 -1.8,-0.73 -1.35,-2.24 0.69,-2.3 1.58,-4.5 2.94,-6.5 0.24,-0.35 0.45,-0.73 0.7,-1.14 -1.94,-0.42 -4.77,0.06 -6.88,1.15 0.03,0.32 0.02,0.7 0.1,1.06 0.86,3.59 1.33,7.23 1.66,10.9 0.13,1.47 0.04,2.97 0.04,4.45 0,0.13 -0.01,0.26 -0.03,0.39 -0.14,0.94 -0.49,1.26 -1.4,1.2 -0.45,-0.03 -0.91,-0.09 -1.32,-0.24 -4.73,-1.73 -9.38,-3.65 -13.76,-6.15 -0.28,-0.16 -0.53,-0.37 -0.81,-0.54 -1.54,-0.89 -2.19,-2.12 -2.08,-3.99 0.2,-3.43 -0.26,-6.83 -1.14,-10.15 -0.47,-1.76 -1.19,-3.41 -2.4,-4.81 -1.36,-1.58 -2.98,-2.65 -5.14,-2.74 -0.13,0 -0.26,-0.02 -0.39,-0.04 -2.27,-0.26 -3.06,-0.96 -3.52,-3.16 -0.21,-1.02 -0.24,-2.05 0.08,-3.06 0.33,-1.03 0.98,-1.51 2.03,-1.38 0.63,0.08 1.27,0.27 1.84,0.56 1.49,0.76 2.94,1.6 4.4,2.43 0.5,0.29 1,0.6 1.47,0.94 0.81,0.59 1.68,0.95 2.71,0.84 0.18,-0.02 0.37,0.07 0.65,0.13 0.07,0.27 0.22,0.58 0.2,0.87 -0.07,1.27 0.33,2.42 0.84,3.54 0.56,1.24 1.13,2.46 1.68,3.7 1.45,3.21 2.37,6.55 2.22,10.12 -0.01,0.26 0.01,0.52 0.02,0.77 0.02,0.51 0.32,0.82 0.76,1.02 1.03,0.47 1.93,0.56 3.84,0.38 0.55,-0.58 0.66,-1.38 0.69,-2.12 0.24,-5.21 -0.57,-10.17 -3.82,-14.47 -1.48,-1.25 -0.91,-3.35 0.16,-4.72 0.31,-0.4 0.83,-0.46 1.18,-0.12 0.28,0.27 0.52,0.57 0.76,0.87 1.53,1.85 3.5,2.99 5.78,3.7 2.77,0.85 5.6,0.86 8.44,0.79 3.88,-0.09 7.72,-0.59 11.55,-1.15 1.78,-0.26 3.59,-0.5 5.39,-0.14 0.87,0.17 1.77,0.28 2.33,1.01 0.01,0.54 -0.35,0.65 -0.63,0.74 -2.21,0.67 -4.06,1.95 -5.78,3.45 -2.44,2.14 -4.57,4.56 -6.51,7.15 -0.15,0.2 -0.22,0.45 -0.38,0.76 0.36,0.13 0.64,0.29 0.94,0.34 1.4,0.23 2.82,0.34 4.19,0.67 1.21,0.29 2.32,0.16 3.39,-0.36 1.21,-0.59 2.42,-1.23 3.56,-1.96 2.51,-1.59 4.96,-3.26 7.45,-4.88 1.52,-0.98 3.04,-1.96 4.6,-2.87 1.9,-1.11 3.92,-1.55 6.14,-1.04 3.39,0.78 6.81,1.48 10.22,2.16 2.6,0.52 5.15,1.16 7.57,2.24 0.05,0.02 0.13,-0.02 0.19,-0.03 0.02,0.51 0.02,1.02 0.02,1.54 z" id="SvgjsPath1076"></path>
		<path d="m 439.04,552.67 c -0.25,-1.52 -0.45,-3.05 -0.75,-4.56 -0.39,-1.96 -0.74,-3.93 -1.32,-5.84 -1.12,-3.71 -3.05,-6.99 -6.12,-9.43 -3.49,-2.77 -4.91,-6.51 -5.38,-10.74 -0.14,-1.25 -0.29,-2.53 0.09,-3.7 0.43,-0.21 0.63,-0.02 0.74,0.21 1.41,3.05 3.98,5.02 6.6,6.91 1.62,1.17 3.2,2.37 4.7,3.7 3.13,2.79 4.61,6.31 4.78,10.41 0.09,2.05 0.11,4.11 -0.17,6.17 -0.3,2.27 -0.9,4.41 -2.2,6.32 -0.1,0.15 -0.14,0.36 -0.2,0.54 -0.25,0.01 -0.51,0.01 -0.77,0.01 z" id="SvgjsPath1075"></path>
		<path d="m 267.32,282.05 c 0.08,0.67 0.06,1 0.17,1.27 0.5,1.26 0.99,2.52 1.57,3.74 0.81,1.69 1.66,3.36 2.57,4.99 1.49,2.67 2.21,5.49 1.9,8.55 -0.12,1.15 -0.12,2.32 -0.33,3.46 -0.21,1.17 -0.99,1.44 -1.99,0.81 -0.27,-0.17 -0.52,-0.38 -0.77,-0.58 -1.82,-1.5 -3.95,-2.15 -6.26,-2.26 -2,-0.1 -4,-0.09 -6,-0.13 -2.05,-0.04 -4.11,-0.09 -6.34,-0.14 0.16,0.29 0.22,0.55 0.38,0.66 1.15,0.83 2.34,1.6 3.49,2.44 0.89,0.65 1.74,1.34 2.58,2.04 0.29,0.24 0.56,0.54 0.78,0.85 0.33,0.47 0.15,1.11 -0.4,1.26 -0.48,0.13 -1.04,0.26 -1.5,0.14 -0.8,-0.21 -1.57,-0.56 -2.31,-0.94 -0.68,-0.35 -1.31,-0.83 -1.96,-1.24 -4.12,-2.59 -8.65,-3.6 -13.48,-3.48 -3.25,0.08 -6.4,0.8 -9.56,1.41 -1.13,0.22 -2.27,0.5 -3.5,0.1 -0.59,-1.33 -0.68,-2.73 -0.59,-4.15 0.04,-0.69 0.41,-1.05 1.09,-1.16 0.51,-0.08 1.03,-0.09 1.54,-0.1 1.55,-0.01 3.1,0.03 4.65,-0.01 2.21,-0.06 4.36,-0.44 6.36,-1.47 2.36,-1.21 3.34,-3.12 2.88,-5.75 -0.19,-1.08 -0.49,-2.14 -0.78,-3.19 -0.71,-2.55 -1.28,-5.12 -1.49,-7.78 -0.11,-1.44 0.05,-2.83 0.14,-4.24 0.11,-1.75 -0.06,-2.1 -1.68,-2.82 -0.82,-0.37 -1.69,-0.62 -2.53,-0.97 -0.77,-0.32 -1.56,-0.64 -2.28,-1.06 -1.94,-1.12 -2.88,-2.89 -3.1,-5.07 -0.02,-0.23 0.12,-0.47 0.19,-0.74 0.85,-0.07 1.39,0.42 1.98,0.78 1.15,0.71 2.27,1.48 3.45,2.15 1.12,0.63 2.28,1.2 3.45,1.74 1.66,0.77 3.41,1.18 5.26,1.05 1.03,-0.07 2.06,-0.12 3.09,-0.15 0.51,-0.02 1.04,-0.03 1.54,0.05 0.99,0.15 1.35,1.03 0.78,1.88 -0.25,0.37 -0.57,0.71 -0.91,0.99 -1.3,1.05 -1.84,2.45 -1.95,4.06 -0.18,2.62 0.13,5.17 1.34,7.53 0.7,1.37 1.51,2.7 2.31,4.02 0.26,0.41 0.55,0.9 1.3,0.94 0.45,-0.41 0.52,-1.05 0.56,-1.67 0.15,-2.58 0.29,-5.15 0.43,-7.73 0.03,-0.56 0.07,-1.12 0.1,-1.6 0.53,-0.35 0.86,-0.18 1.17,0.09 0.79,0.69 1.36,1.54 1.84,2.47 0.72,1.39 1.13,2.88 1.5,4.38 0.23,0.94 0.46,1.88 0.67,2.82 0.34,1.51 1.15,2.74 2.34,3.69 1.15,0.93 2.37,1.78 3.58,2.64 0.13,0.09 0.36,0.06 0.63,0.1 0,-0.55 0.08,-1.06 -0.01,-1.54 -0.63,-3.36 -1.25,-6.72 -1.96,-10.06 -0.69,-3.23 -1.16,-6.47 -1.36,-9.76 -0.04,-0.63 -0.12,-1.27 0.09,-1.82 0.45,-0.25 0.7,-0.02 0.91,0.21 3.64,4.02 8.25,6.32 13.45,7.57 2.95,0.71 5.89,1.44 8.86,2.04 2.46,0.49 4.96,0.88 7.46,1.15 2.63,0.28 5.27,0.56 7.92,0.44 0.92,-0.04 1.8,0.12 2.61,0.58 0.57,0.32 0.66,0.83 0.19,1.25 -0.29,0.26 -0.6,0.49 -0.92,0.71 -1.47,1.02 -2.56,2.36 -3.3,3.98 -0.7,1.52 -1.33,3.08 -1.99,4.62 -0.43,1.01 -0.84,2.03 -1.31,3.02 -0.3,0.63 -0.61,1.29 -1.4,1.71 -0.26,-0.19 -0.63,-0.35 -0.82,-0.63 -0.88,-1.27 -1.71,-2.57 -2.56,-3.87 -0.14,-0.22 -0.27,-0.44 -0.4,-0.67 -0.53,-0.91 -0.59,-1.83 -0.03,-2.75 0.37,-0.6 0.77,-1.19 1.15,-1.79 0.31,-0.48 0.62,-0.95 1.02,-1.57 -0.37,-0.11 -0.6,-0.26 -0.8,-0.24 -4.14,0.44 -8.09,-0.47 -11.97,-1.78 -2.82,-0.95 -5.54,-2.13 -8.21,-3.43 -1.34,-0.7 -2.72,-1.37 -4.52,-2.04 z" id="SvgjsPath1074"></path>
		<path d="m 412.79,157.84 c -0.17,-0.49 -0.4,-0.88 -0.43,-1.29 -0.1,-1.52 0.21,-2.98 1.08,-4.24 0.62,-0.9 1.33,-1.75 2.09,-2.53 1.5,-1.53 3.22,-2.79 5.08,-3.85 1.79,-1.03 3.61,-2 5.43,-2.98 2.5,-1.35 5.02,-2.66 7.51,-4.02 2.22,-1.21 4.48,-2.31 7.02,-2.64 0.25,-0.03 0.48,-0.16 0.81,-0.28 -0.69,-1.44 -1.46,-2.78 -1.99,-4.22 -0.5,-1.36 -0.74,-2.81 -1.13,-4.36 -2.75,1.77 -5.35,3.7 -8.54,4.2 -0.17,0.53 0.18,0.68 0.39,0.89 1.2,1.2 2.15,2.57 2.79,4.15 0.14,0.34 0.18,0.73 0.31,1.23 -0.47,0.04 -0.85,0.16 -1.18,0.07 -0.55,-0.16 -1.08,-0.44 -1.58,-0.72 -1.81,-1 -3.51,-2.18 -5.07,-3.54 -0.78,-0.68 -1.58,-1.33 -2.41,-1.94 -1.4,-1.03 -2.97,-1.54 -4.72,-1.43 -0.13,0.01 -0.26,0.01 -0.39,0.01 -2.29,0.07 -2.77,-0.27 -3.65,-2.66 0.27,-0.12 0.54,-0.35 0.81,-0.36 1.03,-0.02 2.08,-0.07 3.09,0.08 5.5,0.86 10.67,-0.05 15.52,-2.77 1.35,-0.76 2.7,-1.52 4.01,-2.34 3.29,-2.04 6.61,-4.05 9.84,-6.18 1.94,-1.28 3.78,-2.71 5.59,-4.16 1.77,-1.42 3.62,-2.71 5.63,-3.75 0.27,-0.14 0.57,-0.22 0.87,-0.34 2.05,4.6 2.8,9.21 1.2,13.98 -0.34,1.03 -0.89,1.99 -1.44,2.94 -0.25,0.43 -0.68,0.77 -1.09,1.07 -0.55,0.4 -1.2,0.19 -1.4,-0.45 -0.17,-0.55 -0.25,-1.13 -0.31,-1.7 -0.07,-0.7 -0.08,-1.41 -0.11,-2.12 -0.96,-0.53 -1.76,-1.12 -2.24,-2.11 -0.39,-0.81 -0.94,-0.97 -1.78,-0.72 -0.49,0.14 -0.96,0.38 -1.4,0.64 -1.79,1.08 -2.92,2.7 -3.67,4.61 -0.81,2.07 -1.02,4.25 -1.05,6.46 -0.03,2 -0.1,4 -0.19,6 -0.03,0.58 -0.13,1.16 -0.27,1.72 -0.16,0.64 -0.52,0.96 -1.1,0.85 -2.47,-0.46 -4.55,0.58 -6.65,1.6 -1.98,0.96 -3.82,2.14 -5.48,3.61 -1.31,1.15 -2.65,2.27 -3.97,3.4 -0.24,0.21 -0.48,0.43 -0.69,0.68 -0.27,0.31 -0.1,0.83 0.29,0.93 0.44,0.11 0.89,0.15 1.33,0.24 0.55,0.12 1.1,0.26 1.55,0.37 0.33,0.73 0.05,1.15 -0.33,1.53 -0.75,0.75 -1.69,1.19 -2.7,1.45 -2.56,0.65 -5.14,1.24 -7.7,1.92 -1.68,0.45 -3.35,0.96 -4.97,1.57 -0.88,0.33 -1.66,0.94 -2.61,1.5 z" id="SvgjsPath1073"></path>
		<path d="m 323.92,302.13 c 0.62,-0.68 1.06,-1.14 1.47,-1.62 0.34,-0.39 0.64,-0.81 0.96,-1.21 0.3,-0.36 0.66,-0.67 1.16,-0.52 0.59,0.18 0.69,0.72 0.69,1.25 0,0.51 -0.01,1.04 -0.11,1.54 -0.22,1.07 -0.44,2.15 -0.77,3.2 -0.5,1.6 -1.08,3.17 -1.64,4.75 -0.06,0.17 -0.21,0.31 -0.42,0.59 -0.41,-0.47 -0.8,-0.87 -1.14,-1.32 -3.36,-4.41 -5.87,-9.25 -7.4,-14.59 -0.9,-3.16 -1.74,-6.34 -2.22,-9.61 -0.68,-4.65 -0.53,-9.26 0.71,-13.82 0.17,-0.62 0.32,-1.24 0.51,-2 -0.43,-0.02 -0.82,-0.13 -1.14,-0.05 -2.87,0.76 -5.73,1.54 -8.58,2.36 -1.11,0.32 -2.21,0.72 -3.28,1.16 -1.26,0.52 -2.4,1.24 -3.36,2.23 -0.56,0.58 -0.9,0.58 -1.53,0.17 -0.27,-0.18 -0.52,-0.38 -0.76,-0.6 -5.02,-4.56 -10.82,-7.9 -16.93,-10.76 -0.68,-0.32 -1.45,-0.52 -2.07,-1.23 0.23,-0.25 0.39,-0.59 0.63,-0.66 1.11,-0.34 2.22,-0.74 3.35,-0.86 5.27,-0.53 10.28,0.42 14.98,2.91 1.25,0.67 2.46,1.41 3.68,2.14 0.5,0.3 0.98,0.63 1.47,0.93 1.38,0.83 2.83,1.11 4.45,0.78 2.92,-0.58 5.74,-1.48 8.57,-2.39 1.23,-0.39 2.44,-0.83 3.69,-1.16 0.74,-0.19 1.52,-0.3 2.28,-0.29 0.73,0.01 1.18,0.64 1.03,1.34 -0.1,0.5 -0.3,0.99 -0.53,1.44 -0.37,0.71 -0.51,1.45 -0.56,2.23 -0.23,4.12 -0.54,8.24 -0.68,12.36 -0.16,4.39 0.08,8.77 0.77,13.12 0.37,2.37 1.11,4.64 1.97,6.87 0.15,0.39 0.39,0.7 0.75,1.32 z" id="SvgjsPath1072"></path>
		<path d="m 425.63,485.04 c 0.48,-0.43 0.79,-0.64 1.02,-0.91 1.61,-1.85 3.6,-3.13 5.92,-3.88 1.65,-0.54 3.35,-0.92 5.03,-1.39 0.67,-0.19 1.29,-0.16 1.8,0.35 0.56,0.55 1.24,0.59 1.97,0.61 2.13,0.07 4.25,0.19 6.38,0.29 0.32,0.01 0.65,0 0.97,0.01 0.79,0.01 1.38,-0.36 1.72,-1.05 0.28,-0.58 0.5,-1.18 0.72,-1.79 0.37,-1.03 0.68,-2.08 1.07,-3.11 0.55,-1.46 1.35,-2.79 2.41,-3.94 0.2,-0.22 0.49,-0.35 0.76,-0.54 0.35,1.06 0.38,1.07 0.18,1.9 -0.66,2.73 -0.77,5.48 -0.34,8.26 0.16,1.02 0.17,2.06 0.2,3.09 0.02,0.51 -0.02,1.04 -0.11,1.54 -0.25,1.34 -1.03,1.74 -2.23,1.17 -0.46,-0.22 -0.9,-0.51 -1.34,-0.77 -1.41,-0.84 -2.92,-0.98 -4.48,-0.58 -0.87,0.22 -1.74,0.5 -2.58,0.81 -5.09,1.85 -10.17,3.74 -15.27,5.56 -1.81,0.65 -3.38,1.57 -4.51,3.17 -0.29,0.41 -0.68,0.79 -1.09,1.09 -1.22,0.9 -2.84,0.46 -3.33,-0.96 -0.26,-0.78 -0.34,-1.64 -0.37,-2.47 -0.06,-1.55 0.02,-3.1 -0.02,-4.64 -0.1,-3.3 -0.63,-6.54 -1.56,-9.72 -0.33,-1.11 -0.55,-2.26 -0.73,-3.4 -0.11,-0.7 -0.05,-1.4 0.64,-1.91 0.27,-0.2 0.45,-0.63 0.52,-0.98 0.15,-0.76 0.25,-1.53 0.29,-2.3 0.14,-2.32 0.2,-4.64 0.36,-6.96 0.19,-2.73 -0.09,-5.41 -0.5,-8.1 -0.06,-0.38 -0.17,-0.77 0.19,-1.07 0.25,-0.21 0.69,-0.05 1.15,0.47 0.38,0.43 0.75,0.89 1.07,1.37 1.86,2.85 3.03,5.97 3.76,9.28 0.15,0.66 0.15,1.26 -0.35,1.81 -0.46,0.51 -0.45,1.19 -0.51,1.83 -0.29,3.24 -0.02,6.45 0.41,9.65 0.33,2.43 0.68,4.86 0.65,7.32 -0.04,0.17 0.03,0.35 0.13,0.89 z" id="SvgjsPath1071"></path>
		<path d="m 443.95,98.63 c 0.41,-0.62 0.73,-1.17 1.12,-1.68 0.6,-0.78 1.44,-0.88 2.2,-0.29 1.45,1.12 1.9,3.42 1.03,5.23 -0.06,0.02 -0.13,0.09 -0.17,0.07 -1.54,-0.77 -1.98,-0.29 -2.82,1.04 -1.88,3.01 -3.01,6.27 -3.05,9.86 0,0.45 0,0.91 -0.05,1.35 -0.18,1.44 -0.96,2.03 -2.41,1.78 -0.57,-0.1 -1.11,-0.34 -1.66,-0.52 -0.92,-0.3 -1.82,-0.7 -2.75,-0.9 -1.76,-0.39 -3.31,-0.05 -4.47,1.6 0.52,0.37 0.97,0.7 1.38,0.99 0.08,0.72 -0.35,1.06 -0.77,1.33 -0.98,0.62 -1.99,1.2 -3.01,1.75 -1.31,0.7 -2.7,1.26 -3.95,2.04 -1.64,1.01 -3.19,2.18 -4.79,3.27 -0.35,0.24 -0.72,0.45 -1.12,0.71 -0.44,-0.76 -0.2,-1.36 0.02,-1.96 0.95,-2.56 2.64,-4.56 4.72,-6.26 0.25,-0.2 0.51,-0.39 0.79,-0.56 0.59,-0.36 0.9,-0.84 0.98,-1.56 0.27,-2.29 1.66,-3.72 3.73,-4.53 1.14,-0.45 2.31,-0.81 3.48,-1.19 1.42,-0.46 2.75,-1.1 3.96,-1.99 0.95,-0.7 1.74,-1.54 2.36,-2.54 1.26,-2.05 0.93,-4.94 -0.8,-6.59 -1.04,-0.99 -2.31,-1.38 -3.74,-1.17 -0.45,0.07 -0.88,0.23 -1.32,0.28 -1.2,0.14 -1.99,-0.27 -2.52,-1.36 -0.49,-1.01 -0.67,-2.07 -0.42,-3.2 0.31,-1.34 0.84,-2.59 1.71,-3.65 0.9,-1.1 1.87,-2.13 2.82,-3.19 1.26,-1.38 2.57,-2.72 3.78,-4.15 0.92,-1.09 1.55,-2.37 2.02,-3.73 0.24,-0.7 0.29,-1.38 0.01,-2.08 -0.55,-1.38 -1.04,-2.78 -1.67,-4.12 -0.79,-1.69 -1.7,-3.33 -2.54,-5 -0.11,-0.22 -0.18,-0.47 -0.26,-0.69 0.18,-0.09 0.29,-0.19 0.39,-0.18 2.75,0.26 5.33,0.97 7.49,2.78 1.2,1.01 2.09,2.25 2.58,3.71 -1.21,1.06 -1.25,1.05 -1.76,2.55 -1.7,5.04 -4.15,9.72 -6.73,14.35 -0.63,1.12 -1.41,2.16 -2.12,3.24 -0.24,0.36 -0.43,0.75 -0.72,1.24 0.39,0.16 0.66,0.31 0.95,0.39 0.5,0.14 1,0.26 1.5,0.37 2.44,0.5 4.78,1.18 6.6,3.16 z" id="SvgjsPath1070"></path>
		<path d="m 430.99,477.16 c -0.41,-3.16 1.33,-5.51 4.2,-5.65 1.33,-0.06 2.69,0.22 4.03,0.4 0.89,0.12 1.76,0.37 2.74,0.05 0.35,-1.12 0.25,-2.25 0.11,-3.29 -0.61,-0.54 -1.19,-0.37 -1.75,-0.26 -1.77,0.36 -3.54,0.73 -5.3,1.1 -0.06,0.01 -0.13,0.03 -0.19,0.04 -2.57,0.51 -2.75,0 -3.27,-2.02 -0.66,-2.58 -1.81,-4.96 -3.11,-7.28 -0.6,-1.06 -1.18,-2.14 -1.72,-3.12 0.1,-0.77 0.6,-1.11 1.02,-1.49 4.15,-3.76 8.93,-6.32 14.4,-7.58 0.88,-0.2 1.76,-0.44 2.65,-0.55 1.34,-0.16 2.69,-0.23 4.04,-0.31 0.44,-0.02 0.96,-0.06 1.15,0.48 0.14,0.43 -0.2,0.7 -0.45,1 -0.81,1 -1.62,2.01 -2.42,3.01 -0.12,0.15 -0.23,0.31 -0.34,0.47 -1.85,2.84 -4.58,4.27 -7.84,4.83 -1.14,0.19 -2.31,0.24 -3.46,0.35 -0.44,0.04 -0.88,0.09 -1.26,0.13 -0.32,0.51 -0.09,0.83 0.22,1.09 2.35,1.97 4.98,2.97 8.07,2.13 1.24,-0.34 2.47,-0.76 3.7,-1.14 0.55,-0.17 1.1,-0.38 1.67,-0.48 1.03,-0.18 1.66,0.33 1.64,1.35 -0.01,0.57 -0.11,1.16 -0.27,1.71 -0.92,3.16 -1.85,6.31 -2.83,9.45 -0.32,1.04 -0.72,2.08 -1.21,3.05 -1.14,2.26 -2.55,2.99 -5.02,2.73 -1.03,-0.11 -2.05,-0.2 -3.08,-0.34 -1.68,-0.22 -3.35,-0.21 -5.02,0.07 -0.33,0.06 -0.65,0.04 -1.1,0.07 z" id="SvgjsPath1069"></path>
		<path d="m 543.76,358.97 c -0.53,-0.5 -0.9,-0.84 -1.34,-1.25 -1.11,0.48 -1.97,1.21 -2.64,2.18 -0.43,0.63 -0.59,1.33 -0.45,2.03 0.26,1.39 0.61,2.76 0.97,4.13 0.11,0.41 0.52,0.64 0.92,0.53 0.68,-0.18 1.37,-0.4 1.99,-0.72 1.22,-0.62 2.24,-1.51 3.16,-2.53 1.96,-2.18 3.51,-4.62 4.66,-7.31 0.46,-1.07 0.84,-2.17 1.29,-3.23 0.24,-0.57 0.38,-1.25 1.2,-1.56 0.5,0.46 0.55,1.08 0.48,1.71 -0.12,1.09 -0.28,2.17 -0.44,3.26 -0.14,1.02 -0.34,2.04 -0.44,3.06 -0.12,1.28 -0.24,2.57 0.18,3.84 0.3,0.92 -0.04,1.61 -0.89,2.1 -1.41,0.81 -2.6,1.9 -3.75,3.03 -1.27,1.23 -2.74,2.18 -4.45,2.64 -1.45,0.4 -2.52,1.24 -3.4,2.41 -0.73,0.98 -1.48,1.96 -2.25,2.91 -0.31,0.38 -0.58,0.87 -1.2,0.82 -0.44,-0.23 -0.35,-0.65 -0.38,-1.01 -0.09,-1.22 -0.13,-2.44 -0.25,-3.66 -0.1,-1.05 -0.06,-2.06 0.49,-3 0.12,-0.21 0.14,-0.47 0.22,-0.78 -0.73,-0.37 -1.41,-0.72 -2.17,-1.11 -0.08,-0.55 -0.18,-1.11 -0.24,-1.68 -0.28,-2.31 -0.7,-4.59 -1.41,-6.81 -0.17,-0.55 -0.31,-1.12 -0.4,-1.69 -0.03,-0.22 0.1,-0.64 0.22,-0.66 0.27,-0.05 0.66,-0.01 0.86,0.16 0.39,0.33 0.68,0.77 1,1.17 0.28,0.34 0.54,0.68 0.89,1.12 0.3,-0.29 0.56,-0.47 0.73,-0.72 1.13,-1.67 2.52,-3.1 4.1,-4.35 0.15,-0.12 0.28,-0.27 0.44,-0.37 0.76,-0.52 0.84,-1.23 0.6,-2.05 -0.16,-0.55 -0.29,-1.12 -0.37,-1.69 -0.19,-1.46 0.08,-2.83 0.94,-4.05 0.19,-0.26 0.34,-0.55 0.55,-0.8 0.63,-0.77 0.7,-1.64 0.47,-2.56 -0.17,-0.69 -0.36,-1.37 -0.56,-2.05 -0.45,-1.52 -0.38,-3.06 -0.13,-4.6 0.03,-0.16 0.2,-0.3 0.35,-0.52 1.05,0.5 1.27,1.59 1.84,2.39 0.59,0.84 1,1.8 1.86,2.62 0.22,-0.28 0.48,-0.48 0.57,-0.73 0.4,-1.09 0.76,-2.19 1.14,-3.29 0.8,-2.29 2.59,-3.4 4.8,-4.18 0.17,0.3 0.38,0.51 0.4,0.73 0.1,1.25 0.54,2.38 1.08,3.49 0.14,0.29 0.25,0.59 0.33,0.9 0.15,0.61 -0.09,1.07 -0.73,1.09 -1.29,0.03 -1.79,0.85 -2.17,1.86 -0.53,1.39 -0.81,2.85 -1.01,4.32 -0.26,1.92 -0.47,3.84 -0.81,5.74 -0.56,3.13 -2.19,5.62 -4.77,7.48 -0.58,0.46 -1.28,0.78 -2.08,1.24 z" id="SvgjsPath1068"></path>
		<path d="m 568.32,278.96 c -1.47,2.83 -1.47,2.83 -1.49,6.34 0,0.51 -0.02,1.03 -0.07,1.54 -0.02,0.15 -0.2,0.28 -0.33,0.46 -0.7,-0.32 -0.81,-1.02 -1.17,-1.52 -0.33,-0.46 -0.65,-0.94 -0.95,-1.36 -0.56,0.07 -0.55,0.42 -0.57,0.73 -0.1,1.5 0.17,2.96 0.51,4.4 0.49,2.07 1.14,4.09 1.96,6.06 1.43,3.42 4.05,5.05 7.66,5.23 1.09,0.06 2.19,0.03 3.29,0.03 0.47,0 0.97,0.02 1.19,0.48 0.22,0.47 -0.09,0.89 -0.42,1.2 -0.51,0.49 -1.07,0.92 -1.63,1.36 -0.45,0.36 -0.93,0.69 -1.39,1.05 -0.37,0.3 -0.61,0.68 -0.47,1.18 0.27,0.96 -0.22,1.46 -1.04,1.77 -0.3,0.11 -0.6,0.23 -0.9,0.34 -4.16,1.46 -8,3.57 -11.71,5.92 -3.24,2.06 -6.03,4.63 -8.02,7.97 -0.13,0.22 -0.27,0.44 -0.43,0.64 -0.52,0.67 -1.12,0.58 -1.43,-0.26 -0.45,-1.22 -0.76,-2.49 -0.46,-3.79 0.27,-1.19 0.56,-2.39 1.04,-3.51 1.31,-3.04 3.15,-5.76 5.32,-8.26 0.67,-0.77 1.37,-1.38 2.54,-1 0.3,-0.49 0.6,-0.91 0.81,-1.36 1.25,-2.61 1.75,-5.35 1.52,-8.25 -0.17,-2.06 -0.38,-4.09 -0.88,-6.11 -0.68,-2.74 -0.62,-5.51 0.31,-8.2 1.16,-3.36 1.84,-3.86 5.35,-3.68 0.62,0.05 1.32,-0.11 1.86,0.6 z" id="SvgjsPath1067"></path>
		<path d="m 213.71,277.97 c 0.34,0.02 0.66,0.08 0.96,0.05 1.26,-0.15 2.3,0.35 3.15,1.19 0.96,0.95 1.86,1.97 2.7,3.03 0.96,1.21 1.86,2.48 2.71,3.77 0.71,1.07 1.64,1.6 2.92,1.54 0.9,-0.04 1.8,-0.1 2.71,-0.09 1.61,0.01 3.23,0.01 4.79,0.48 0.3,0.09 0.57,0.24 0.91,0.38 -0.02,1.42 -0.29,2.72 -0.61,4.07 -1.26,0.43 -2.51,0.68 -3.8,0.46 -1.59,-0.27 -3.18,-0.56 -4.73,-0.98 -3.33,-0.9 -6.71,-1.29 -10.14,-1.37 -0.42,-0.01 -0.83,-0.11 -1.34,-0.18 1,-1.18 1,-1.18 4.91,-2.92 -0.19,-0.32 -0.32,-0.69 -0.56,-0.94 -1,-1.02 -2.1,-1.91 -3.47,-2.4 -0.96,-0.35 -1.92,-0.42 -2.78,0.16 -0.64,0.44 -1.31,0.51 -2.03,0.42 -1.73,-0.23 -3.34,0.21 -4.87,0.95 -1.45,0.7 -2.86,1.49 -4.28,2.25 -0.85,0.46 -1.7,0.93 -2.54,1.4 -2.06,1.15 -4.29,1.34 -6.58,1.05 -0.3,-0.04 -0.58,-0.22 -0.89,-0.34 -0.01,-0.84 0.46,-1.4 0.86,-1.96 2.75,-3.9 6.04,-7.22 10.21,-9.62 1.12,-0.64 2.28,-1.21 3.37,-1.91 1.63,-1.04 3.27,-2.08 4.79,-3.27 2.16,-1.7 3.75,-3.9 4.99,-6.34 0.19,-0.38 0.3,-0.93 0.88,-0.89 0.66,0.05 0.79,0.66 0.84,1.14 0.09,0.83 0.13,1.68 0.02,2.5 -0.28,2.14 -1.08,4.11 -2.14,5.98 -0.32,0.56 -0.6,1.14 -0.87,1.73 -0.08,0.16 -0.06,0.37 -0.09,0.66 z" id="SvgjsPath1066"></path>
		<path d="m 417.89,176.75 c -0.86,0.1 -1.42,0.22 -1.99,0.22 -1.23,0 -2.25,0.46 -3.17,1.24 -0.69,0.58 -1.4,1.14 -2.14,1.66 -2.49,1.78 -5.23,3.04 -8.19,3.83 -1.06,0.29 -2.1,0.65 -3.18,0.83 -2.27,0.39 -3.86,1.63 -5.03,3.56 -1.17,1.94 -2.69,3.61 -4.24,5.26 -2.03,2.16 -4.55,3.1 -7.43,3.2 -1.74,0.06 -3.49,0.17 -5.2,-0.32 -0.56,-0.16 -1.14,-0.29 -1.63,-0.57 -0.42,-0.24 -0.82,-0.64 -1.07,-1.06 -0.45,-0.74 -0.13,-1.38 0.73,-1.55 0.76,-0.15 1.53,-0.19 2.29,-0.31 1.52,-0.24 3.09,-0.36 4.56,-0.8 3.04,-0.9 4.38,-2.84 4.48,-6.01 0.05,-1.5 -0.23,-2.95 -0.54,-4.4 -0.26,-1.26 -0.56,-2.52 -0.76,-3.79 -0.22,-1.37 0.16,-2.65 0.69,-3.9 0.92,-0.06 1.42,0.49 1.96,0.91 1.85,1.46 3.97,2.39 6.19,3.12 2.2,0.72 4.45,0.7 6.7,0.32 2.11,-0.36 4.09,-1.12 6.05,-1.97 1.24,-0.54 2.51,-1.02 3.78,-1.46 1.24,-0.43 2.54,-0.45 3.83,-0.28 1.34,0.19 2.45,0.75 3.31,2.27 z" id="SvgjsPath1065"></path>
		<path d="m 480.37,176.3 c 0.95,-1.47 2.1,-1.92 3.4,-2.12 0.32,-0.05 0.64,-0.03 0.97,-0.02 2.55,0.1 5.77,2.43 6.52,4.81 0.42,1.32 0.36,2.69 -0.2,3.98 -0.9,2.06 -0.68,2 0.98,3.02 2.58,1.6 4.99,3.44 7.36,5.33 0.96,0.76 1.93,1.52 2.95,2.2 2.56,1.71 5.38,2.4 8.46,2.08 2.12,-0.22 4.24,-0.38 6.36,-0.53 0.51,-0.04 1.04,0 1.54,0.11 1.16,0.27 1.86,1.15 1.83,2.18 -0.04,1.13 -0.86,2.05 -2.04,2.22 -0.51,0.07 -1.03,0.04 -1.55,0.04 -1.96,0.02 -3.83,0.42 -5.64,1.17 -1.65,0.68 -3.08,1.62 -4,3.2 -0.37,0.64 -0.84,1.11 -1.6,1.29 -0.94,0.23 -1.88,0.54 -2.85,0.26 -0.25,-0.07 -0.51,-0.41 -0.58,-0.68 -0.12,-0.49 -0.13,-1.02 -0.15,-1.54 -0.1,-2.81 -1.32,-5.09 -3.39,-6.92 -2.28,-2.02 -4.77,-3.74 -7.65,-4.83 -2.11,-0.8 -4.23,-1.56 -6.34,-2.37 -2.01,-0.77 -2.12,-1.39 -0.52,-2.75 0.25,-0.21 0.5,-0.4 0.75,-0.61 0.91,-0.73 1.36,-1.68 1.44,-2.84 0.1,-1.38 -0.08,-2.72 -0.7,-3.95 -0.83,-1.67 -2.06,-2.79 -4.1,-2.66 -0.3,0.04 -0.61,-0.02 -1.25,-0.07 z" id="SvgjsPath1064"></path>
		<path d="m 478.08,429.81 c -0.36,0.24 -0.59,0.35 -0.76,0.53 -2.6,2.74 -4.78,5.76 -6.12,9.32 -0.11,0.3 -0.26,0.59 -0.43,0.86 -0.05,0.08 -0.23,0.12 -0.34,0.1 -0.11,-0.02 -0.21,-0.12 -0.29,-0.21 -0.04,-0.04 -0.06,-0.12 -0.07,-0.18 -0.29,-2.92 -0.28,-5.81 1.07,-8.52 0.37,-0.75 0.74,-1.51 1.14,-2.24 0.89,-1.66 1.53,-3.4 2.05,-5.21 1.06,-3.69 3.16,-6.6 6.66,-8.37 0.98,-0.49 1.98,-0.94 2.98,-1.39 0.29,-0.13 0.61,-0.22 0.92,-0.3 0.94,-0.22 1.4,0.16 1.29,1.08 -0.08,0.64 -0.25,1.27 -0.29,1.91 -0.03,0.43 0.09,0.86 0.14,1.23 0.95,0.38 1.63,-0.1 2.33,-0.39 1.74,-0.71 3.51,-1.33 5.38,-1.52 2.95,-0.31 5.91,-0.55 8.87,-0.78 0.34,-0.03 0.71,0.19 1.02,0.29 0.12,0.76 -0.29,1.21 -0.64,1.66 -1.66,2.11 -3.83,3.44 -6.44,4.02 -0.94,0.21 -1.91,0.34 -2.87,0.42 -2.23,0.21 -4.29,0.88 -6.14,2.15 -0.59,0.4 -1.15,0.83 -1.72,1.25 -2.22,1.62 -3.69,3.75 -4.47,6.38 -0.18,0.61 -0.41,1.23 -0.72,1.78 -0.38,0.69 -1.21,0.64 -1.5,-0.08 -0.26,-0.65 -0.4,-1.35 -0.58,-2.04 -0.16,-0.54 -0.29,-1.08 -0.47,-1.75 z" id="SvgjsPath1063"></path>
		<path d="m 455.37,69.99 c -0.57,-0.28 -1.14,-0.55 -1.7,-0.85 -3.54,-1.95 -7.28,-3.29 -11.27,-3.94 -1.4,-0.23 -2.79,-0.53 -4.18,-0.83 -0.37,-0.08 -0.71,-0.25 -1.17,-0.41 0.82,-1.67 2.57,-2.44 3.46,-4.06 -0.16,-0.28 -0.34,-0.61 -0.54,-0.92 -1.5,-2.42 -2.85,-4.91 -4.01,-7.51 -0.58,-1.31 -0.69,-2.58 -0.14,-3.93 0.51,-1.25 0.89,-2.56 1.36,-3.83 0.13,-0.35 0.37,-0.65 0.62,-1.1 0.39,0.23 0.76,0.36 1,0.61 5.68,5.8 10.8,12 14.04,19.54 0.82,1.9 1.62,3.8 2.41,5.71 0.17,0.4 0.27,0.82 0.4,1.23 -0.08,0.1 -0.18,0.19 -0.28,0.29 z" id="SvgjsPath1062"></path>
		<path d="m 404.93,410.57 c -0.06,0.54 -0.06,0.98 -0.15,1.4 -0.59,2.5 0.18,4.6 1.94,6.35 2.54,2.53 5.69,3.42 9.21,3.07 0.7,-0.07 1.39,-0.25 2.09,-0.36 0.99,-0.15 1.93,-0.01 2.76,0.58 0.24,0.17 0.42,0.44 0.63,0.68 -1.01,1.2 -1.9,2.38 -2.91,3.43 -2.01,2.08 -4.48,2.69 -7.26,1.96 -0.93,-0.24 -1.84,-0.6 -2.73,-0.96 -1.87,-0.76 -3.78,-1.17 -5.81,-1.27 -1.9,-0.09 -3.72,0 -5.46,0.85 -0.79,0.39 -1.61,0.34 -2.41,-0.06 -2.43,-1.2 -4.81,-2.47 -6.96,-4.15 -0.24,-0.19 -0.44,-0.41 -0.65,-0.61 0.24,-0.51 0.58,-0.32 0.87,-0.28 1.41,0.17 2.82,0.26 4.22,-0.12 1.92,-0.53 3.57,-1.51 4.84,-3.03 1.03,-1.23 1.93,-2.57 2.89,-3.86 0.69,-0.93 1.35,-1.89 2.11,-2.76 0.65,-0.74 1.47,-1.25 2.78,-0.86 z" id="SvgjsPath1061"></path>
		<path d="m 489.6,414.03 c 0.02,-1.58 0.65,-2.56 1.44,-3.41 1.05,-1.13 2.18,-2.19 3.32,-3.24 0.71,-0.65 1.5,-1.22 2.26,-1.83 0.5,-0.41 0.97,-0.85 1.49,-1.23 1.6,-1.17 2.1,-2.7 1.56,-4.59 -0.09,-0.3 -0.13,-0.61 -0.22,-1.03 -0.45,0.1 -0.84,0.12 -1.15,0.28 -0.92,0.47 -1.81,1 -2.71,1.5 -0.63,0.36 -1.28,0.63 -2.05,0.22 -0.29,-0.6 -0.51,-1.3 -0.94,-1.83 -0.43,-0.53 -1.06,-0.89 -1.57,-1.3 0.12,-0.9 0.69,-1.36 1.22,-1.81 1.53,-1.3 3.18,-2.42 5.08,-3.14 1.7,-0.64 3.33,-1.38 4.54,-2.84 0.55,-0.67 1.35,-0.71 2.14,-0.45 0.36,0.12 0.72,0.3 1.03,0.52 1.06,0.76 2.18,0.7 3.33,0.31 1.1,-0.37 2.18,-0.8 3.27,-1.19 0.73,-0.26 1.47,-0.49 2.37,-0.07 0.03,0.31 0.16,0.7 0.09,1.04 -0.27,1.29 -0.94,2.41 -1.84,3.35 -0.8,0.84 -1.69,1.59 -2.55,2.37 -0.67,0.6 -1.37,1.18 -2.05,1.77 -1.64,1.44 -2.77,3.21 -3.48,5.27 -0.21,0.61 -0.42,1.22 -0.68,1.81 -1.19,2.71 -3.1,4.73 -5.85,5.89 -0.95,0.4 -1.92,0.77 -2.88,1.14 -1.45,0.56 -2.86,1.19 -4.12,2.12 -0.23,0.17 -0.55,0.2 -1.05,0.37 z" id="SvgjsPath1060"></path>
		<path d="m 327.33,250.43 c 0.26,-0.17 0.56,-0.41 0.89,-0.56 5.25,-2.36 8.59,-6.45 10.57,-11.74 0.56,-1.51 0.93,-3.08 1.46,-4.61 0.44,-1.28 0.88,-2.57 1.47,-3.78 1.71,-3.54 4.4,-6.01 8.2,-7.16 1.03,-0.31 2.02,-0.85 3.12,-0.76 0.25,0.47 -0.04,0.67 -0.3,0.82 -1.77,1 -2.8,2.6 -3.72,4.34 -1.37,2.59 -2.23,5.35 -2.95,8.16 -0.4,1.56 -0.75,3.14 -1.21,4.68 -0.31,1.04 -0.73,2.07 -1.2,3.05 -0.39,0.82 -0.92,1.6 -1.77,1.99 -0.71,0.33 -1.06,0.87 -1.36,1.54 -0.63,1.42 -1.48,2.71 -2.47,3.92 -1.25,1.54 -2.77,2.71 -4.67,3.31 -1.36,0.43 -2.4,1.15 -3.03,2.49 -0.23,0.5 -0.7,0.93 -1.14,1.28 -0.61,0.48 -1.37,0.15 -1.39,-0.62 -0.02,-0.76 0.09,-1.53 0.21,-2.29 0.06,-0.37 0.27,-0.72 0.42,-1.08 0.21,-0.53 0.13,-0.99 -0.25,-1.43 -0.37,-0.42 -0.88,-0.76 -0.88,-1.55 z" id="SvgjsPath1059"></path>
		<path d="m 534.2,224.57 c 0.98,-0.2 1.53,0.2 2.06,0.52 0.99,0.6 1.96,1.26 2.88,1.96 1.53,1.16 3.17,1.95 5.16,1.89 0.7,-0.02 1.42,0.14 2.1,0.32 0.91,0.24 1.08,0.62 0.9,1.73 -0.02,0.12 0.02,0.24 0.03,0.34 1.31,0.83 2.6,1.67 3.91,2.48 0.91,0.56 1.88,0.8 2.96,0.53 0.42,-0.11 0.87,-0.08 1.25,-0.11 0.47,0.49 0.31,0.92 0.12,1.33 -0.95,2.09 -3.21,3.37 -5.53,3.14 -2.17,-0.22 -4.14,-0.98 -5.87,-2.3 -0.77,-0.59 -1.5,-1.23 -2.27,-1.82 -0.34,-0.26 -0.73,-0.46 -1.16,-0.73 -0.4,0.9 -0.09,1.62 0.2,2.32 0.85,2.07 2.19,3.79 3.85,5.27 0.43,0.39 0.89,0.75 1.28,1.18 0.77,0.86 0.81,1.71 0.21,2.65 -0.59,0.92 -1.76,1.54 -2.61,1.29 -0.35,-0.1 -0.67,-0.37 -0.94,-0.63 -0.42,-0.4 -0.76,-0.88 -1.17,-1.29 -1.21,-1.17 -1.97,-1.2 -3.37,-0.16 -0.2,0.15 -0.43,0.27 -0.57,0.36 -0.64,0.04 -0.92,-0.34 -1.14,-0.73 -0.44,-0.81 -0.68,-1.68 -0.66,-2.6 0.02,-0.64 0.06,-1.29 0.1,-1.93 0.08,-1.55 0.1,-3.08 -0.39,-4.6 -0.21,-0.66 -0.21,-1.39 -0.25,-2.1 -0.04,-0.67 -0.14,-1.27 -0.7,-1.73 -0.41,-0.34 -0.69,-0.79 -0.66,-1.34 0.09,-1.73 0.19,-3.46 0.28,-5.24 z" id="SvgjsPath1058"></path>
		<path d="m 446.69,487.16 c 0.24,6.27 -1.26,11.54 -6.31,15.55 -0.22,-0.33 -0.49,-0.56 -0.52,-0.82 -0.21,-1.59 -0.38,-3.2 -0.53,-4.8 -0.06,-0.7 -0.03,-1.41 -0.46,-2.1 -0.22,-0.02 -0.47,-0.09 -0.72,-0.07 -0.95,0.06 -1.91,0.15 -2.8,0.22 -0.49,0.78 -0.25,1.49 -0.08,2.16 0.27,1.06 0.62,2.1 1,3.13 0.85,2.31 1.44,4.67 1.76,7.11 0.34,2.66 0.22,5.27 -0.28,7.89 -0.25,1.33 -0.43,2.67 -0.68,4 -0.06,0.34 -0.27,0.65 -0.48,1.14 -0.35,-0.33 -0.62,-0.51 -0.78,-0.76 -1.03,-1.67 -1.78,-3.45 -1.79,-5.44 -0.01,-1.41 0.1,-2.83 0.18,-4.24 0.08,-1.29 0.22,-2.57 0.31,-3.85 0.13,-1.67 -0.35,-3.19 -1.15,-4.62 -0.57,-1.01 -1.18,-2 -1.79,-2.98 -0.65,-1.06 -1.11,-2.18 -1.28,-3.41 -0.14,-0.99 0.16,-1.67 1.08,-2.24 3.25,-2.04 6.79,-3.4 10.41,-4.6 1.22,-0.41 2.47,-0.73 3.72,-1.07 0.28,-0.11 0.6,-0.12 1.19,-0.2 z" id="SvgjsPath1057"></path>
		<path d="m 431.35,74.37 c -1.53,2.99 -2.56,5.69 -3.13,8.52 -0.57,2.82 -0.96,5.67 -1.43,8.53 -0.96,0.04 -1.11,-1.05 -1.85,-1.22 -0.09,0.12 -0.22,0.21 -0.22,0.3 -0.01,0.84 -0.01,1.68 0.03,2.51 0.06,1.3 0.35,2.55 0.83,3.76 0.72,1.83 2.06,2.92 3.96,3.34 0.5,0.11 1.01,0.2 1.51,0.33 0.72,0.19 0.97,0.49 1.04,1.2 0.07,0.66 0.02,1.31 -0.42,1.84 -0.57,0.69 -1.1,1.46 -1.79,2.02 -1.56,1.27 -3.03,2.61 -4.33,4.14 -0.16,0.19 -0.41,0.29 -0.58,0.42 -0.67,-0.25 -0.96,-0.75 -1.1,-1.33 -0.58,-2.26 -1.66,-4.33 -2.54,-6.48 -1.26,-3.09 -1.88,-6.29 -1.72,-9.63 0.18,-3.85 1.49,-7.32 3.66,-10.45 1.96,-2.83 4.4,-5.23 7.11,-7.35 0.13,-0.11 0.33,-0.15 0.97,-0.45 z" id="SvgjsPath1056"></path>
		<path d="m 433.94,156.03 c -0.69,2 -1.7,3.76 -1.92,5.78 -0.2,1.86 -0.43,3.71 -0.61,5.58 -0.06,0.57 -0.02,1.16 0.01,1.74 0.02,0.32 0.09,0.64 0.16,0.95 0.04,0.18 0.15,0.34 0.24,0.53 1.19,0.48 2.21,-0.78 3.43,-0.27 0.02,0.15 0.11,0.36 0.04,0.49 -0.92,1.96 -2.16,3.68 -4.06,4.8 -0.77,0.45 -1.64,0.75 -2.49,1.01 -0.87,0.27 -1.67,0 -2.27,-0.7 -0.67,-0.78 -1.35,-1.57 -1.97,-2.39 -1.98,-2.64 -4.68,-4.19 -7.72,-5.27 -1.12,-0.4 -2.27,-0.43 -3.44,-0.46 -1.35,-0.04 -2.7,-0.15 -4.05,-0.25 -0.31,-0.02 -0.62,-0.14 -0.92,-0.25 -0.31,-0.11 -0.45,-0.54 -0.28,-0.8 0.11,-0.16 0.21,-0.34 0.35,-0.45 1.21,-0.97 2.42,-1.93 3.65,-2.87 0.66,-0.5 1.43,-0.63 2.21,-0.37 0.91,0.31 1.83,0.63 2.69,1.06 1.73,0.86 3.42,1.81 5.14,2.7 1.68,0.87 1.83,0.8 2.59,-0.87 0.64,-1.41 1.25,-2.84 2.02,-4.17 1.14,-1.98 2.68,-3.64 4.65,-4.85 0.49,-0.3 1.02,-0.56 1.56,-0.75 0.27,-0.08 0.6,0.05 0.99,0.08 z" id="SvgjsPath1055"></path>
		<path d="m 544.23,250.22 c 0.94,-0.27 1.42,0.14 1.81,0.53 0.87,0.85 1.71,1.75 2.48,2.7 1.3,1.6 2.54,3.26 3.82,4.87 0.32,0.4 0.71,0.75 1.08,1.1 0.9,0.85 1.91,1.02 3.02,0.43 0.46,-0.24 0.9,-0.53 1.38,-0.69 0.39,-0.13 0.83,-0.11 1.26,-0.16 0.36,0.77 0.14,1.38 -0.06,1.99 -0.33,0.98 -0.67,1.95 -1,2.93 -1.3,3.92 -1.37,7.85 -0.12,11.79 0.16,0.49 0.37,0.98 0.41,1.49 0.04,0.49 0.04,1.08 -0.19,1.48 -0.51,0.89 -0.58,1.84 -0.58,2.8 0,1.74 0.07,3.48 0.09,5.22 0.01,0.9 0,1.81 -0.06,2.71 -0.04,0.63 -0.09,1.29 -0.5,1.82 -0.51,0.16 -0.73,-0.17 -0.91,-0.52 -0.76,-1.44 -1.25,-2.98 -1.56,-4.56 -0.49,-2.53 -0.92,-5.09 -0.83,-7.68 0.13,-4.06 -0.86,-7.77 -2.89,-11.27 -2.48,-4.26 -4.1,-8.89 -5.6,-13.56 -0.37,-1.1 -0.68,-2.2 -1.05,-3.42 z" id="SvgjsPath1054"></path>
		<path d="m 466.42,416.73 c 0.49,1.15 0.21,2.18 -0.01,3.16 -0.5,2.13 -1.09,4.24 -1.66,6.35 -1.09,4.04 -2.24,8.06 -3.29,12.11 -0.66,2.56 -1.11,5.16 -1.16,7.82 -0.02,1.41 -0.2,2.82 -0.31,4.24 -0.01,0.13 -0.02,0.26 -0.05,0.38 -0.07,0.32 -0.16,0.69 -0.55,0.66 -0.19,-0.01 -0.44,-0.25 -0.54,-0.45 -0.19,-0.4 -0.31,-0.84 -0.43,-1.28 -0.84,-3.02 -0.88,-6.09 -0.6,-9.2 0.16,-1.73 0.21,-3.47 0.24,-5.2 0.03,-1.67 -0.56,-3.15 -1.49,-4.51 -0.96,-1.4 -2.16,-2.55 -3.47,-3.61 -0.8,-0.65 -1.6,-1.3 -2.38,-1.97 -0.69,-0.6 -1.18,-1.36 -1.48,-2.23 -0.26,-0.77 0.1,-1.43 0.9,-1.6 0.77,-0.16 1.54,-0.11 2.28,0.17 0.66,0.24 1.34,0.47 2,0.71 1.76,0.64 3.44,0.49 4.97,-0.6 1.26,-0.89 2.46,-1.86 3.68,-2.81 0.71,-0.55 1.38,-1.17 2.11,-1.68 0.35,-0.27 0.81,-0.32 1.24,-0.46 z" id="SvgjsPath1053"></path>
		<path d="m 424.49,450.25 c -0.44,-1.21 -0.18,-2.12 0.28,-2.99 0.3,-0.56 0.69,-1.09 1.08,-1.6 0.94,-1.22 1.43,-2.6 1.52,-4.11 0.16,-2.71 0.53,-5.38 1.15,-8.02 0.62,-2.68 0.09,-5.12 -1.61,-7.27 -1.88,-2.37 -3.78,-4.72 -5.68,-7.08 -0.32,-0.4 -0.81,-0.76 -0.59,-1.33 0.26,-0.65 0.91,-0.63 1.49,-0.63 1.34,-0.01 2.53,0.45 3.58,1.26 0.56,0.43 1.09,0.91 1.55,1.45 1.32,1.52 2.82,2.82 4.4,4.05 0.51,0.39 0.99,0.83 1.44,1.28 0.85,0.86 1.29,1.91 1.32,3.13 0.01,0.32 0.03,0.65 0,0.97 -0.16,1.82 0.15,3.6 0.46,5.38 0.13,0.76 0.24,1.53 0.39,2.28 0.43,2.3 -0.24,4.33 -1.56,6.18 -0.91,1.27 -2.04,2.32 -3.33,3.2 -1.7,1.16 -3.54,2.13 -5.04,3.57 -0.17,0.13 -0.46,0.14 -0.85,0.28 z" id="SvgjsPath1052"></path>
		<path d="m 341.12,218.56 c 0.71,-1.5 2.3,-3.57 3.35,-4.41 0.76,-0.61 1.58,-0.84 2.53,-0.52 0.55,0.19 1.09,0.39 1.65,0.55 3.44,1.01 6.35,-0.02 8.86,-2.41 0.9,-0.86 1.39,-2.01 1.68,-3.22 0.18,-0.75 0.27,-1.52 0.41,-2.28 0.13,-0.7 0.24,-1.4 0.4,-2.09 0.38,-1.58 1.29,-2.77 2.69,-3.62 1.67,-1.02 3.47,-1.71 5.31,-2.3 1.38,-0.44 2.82,-0.27 4.17,0.3 1.72,0.72 3.3,1.75 5.11,2.27 0.58,0.17 0.62,0.9 0.1,1.2 -0.32,0.19 -0.7,0.36 -1.06,0.41 -0.96,0.13 -1.92,0.22 -2.88,0.25 -1.68,0.06 -3.35,0.06 -5.03,0.12 -1.11,0.04 -2.16,0.33 -3.15,0.85 -0.74,0.39 -1.19,0.94 -1.12,1.85 0.05,0.64 0.04,1.29 0.02,1.93 -0.05,1.97 -0.32,3.86 -1.89,5.3 -0.23,0.21 -0.39,0.52 -0.53,0.8 -1.52,3.02 -4.08,4.57 -7.31,5.12 -2.18,0.37 -4.37,0.29 -6.55,-0.11 -0.38,-0.07 -0.76,-0.16 -1.13,-0.24 -1.49,-0.32 -2.94,-0.3 -4.31,0.5 -0.21,0.12 -0.48,0.17 -0.73,0.2 -0.11,0.01 -0.25,-0.07 -0.34,-0.14 -0.12,-0.09 -0.18,-0.21 -0.25,-0.31 z" id="SvgjsPath1051"></path>
		<path d="m 508.02,384.23 c 0.01,-1.43 0.81,-2.12 1.53,-2.83 0.36,-0.36 0.82,-0.62 1.26,-0.9 3.71,-2.36 7.74,-3.81 12.14,-4.16 1.41,-0.12 2.83,-0.27 4.24,-0.3 1.08,-0.02 1.81,-0.48 2.43,-1.32 0.84,-1.14 1.72,-2.26 2.68,-3.3 0.51,-0.56 1.19,-0.99 1.85,-1.36 0.79,-0.44 1.45,-0.02 1.42,0.86 -0.02,0.44 -0.1,0.9 -0.23,1.32 -0.23,0.74 -0.5,1.47 -0.8,2.18 -0.66,1.52 -0.97,3.06 -0.44,4.7 0.12,0.39 0.02,0.85 0.02,1.4 -0.62,0.09 -1.18,0.21 -1.74,0.23 -1.97,0.07 -3.62,0.86 -5.03,2.18 -0.66,0.62 -1.29,1.27 -1.98,1.85 -1.18,1 -2.52,1.3 -3.96,0.62 -1.6,-0.77 -3.26,-0.69 -4.93,-0.41 -0.38,0.06 -0.75,0.19 -1.13,0.25 -0.68,0.11 -1.31,0.04 -1.7,-0.61 -0.57,-0.92 -1.44,-0.99 -2.38,-0.86 -0.45,0.06 -0.88,0.19 -1.33,0.25 -0.59,0.09 -1.15,0.13 -1.92,0.21 z" id="SvgjsPath1050"></path>
		<path d="m 599.16,272.38 c -2.43,1.47 -4.72,2.36 -7.34,2.04 -1.68,-0.21 -3.28,-0.69 -4.74,-1.57 -1.17,-0.7 -2.29,-1.46 -2.85,-2.79 -0.31,-0.72 -0.93,-1.03 -1.67,-1.16 -1.74,-0.31 -3.47,-0.19 -5.21,-0.03 -1.28,0.12 -2.57,0.16 -3.86,0.18 -1.09,0.02 -1.98,-0.51 -2.76,-1.22 -0.61,-0.56 -0.63,-1.04 -0.12,-1.67 0.16,-0.2 0.37,-0.36 0.54,-0.56 0.12,-0.14 0.22,-0.31 0.36,-0.51 -0.81,-0.62 -1.69,-1.15 -2.37,-1.86 -0.7,-0.74 -1.28,-1.62 -1.8,-2.51 -0.52,-0.89 -0.97,-1.83 -1.33,-2.79 -0.36,-0.95 -0.73,-1.94 -0.46,-3.16 0.29,0.15 0.59,0.23 0.77,0.42 0.64,0.64 1.2,1.36 1.85,1.98 1.68,1.59 3.62,2.68 5.93,3.04 0.45,0.07 0.88,0.2 1.33,0.28 0.75,0.12 1.34,0.5 1.72,1.13 1.9,3.18 4.98,4.08 8.39,4.34 1.48,0.11 2.96,0.22 4.43,0.33 0.26,0.02 0.51,0.06 0.76,0.13 0.72,0.19 1.28,0.59 1.57,1.31 0.2,0.48 0.39,0.95 0.59,1.43 0.66,1.58 1.89,2.38 3.55,2.62 0.83,0.1 1.7,-0.03 2.72,0.6 z" id="SvgjsPath1049"></path>
		<path d="m 336.15,257.04 c -0.21,0.56 -0.37,1.12 -0.63,1.63 -0.38,0.74 -0.85,1.45 -1.27,2.17 -1.61,2.77 -2.56,5.76 -2.99,8.93 -0.36,2.62 -0.72,5.25 -0.62,7.9 0.07,1.8 0.26,3.6 0.31,5.41 0.05,1.67 0.03,3.36 -0.06,5.03 -0.08,1.37 -0.51,2.66 -1.22,3.84 -0.4,0.67 -0.91,1.25 -1.67,1.56 -0.91,0.36 -1.76,-0.22 -1.66,-1.2 0.06,-0.57 0.22,-1.14 0.42,-1.68 0.62,-1.63 0.49,-3.2 -0.47,-4.62 -1.05,-1.55 -1.18,-3.27 -1.03,-5.01 0.4,-4.63 0.87,-9.25 1.38,-13.87 0.18,-1.6 0.55,-3.18 0.85,-4.76 0.14,-0.72 0.5,-1.34 1.08,-1.78 0.92,-0.71 1.86,-1.39 2.8,-2.06 1.05,-0.75 2.11,-1.48 3.16,-2.22 0.32,-0.23 0.66,-0.56 1.02,-0.27 0.29,0.21 0.4,0.63 0.6,1 z" id="SvgjsPath1048"></path>
		<path d="m 466.94,146.86 c -0.14,0.39 -0.25,0.82 -0.43,1.21 -0.57,1.2 -0.3,2.26 0.53,3.22 0.38,0.44 0.85,0.8 1.2,1.26 0.66,0.87 1.38,1.72 1.87,2.68 0.72,1.43 0.79,2.94 0.13,4.37 -0.48,0.22 -0.71,-0.03 -0.95,-0.24 -0.1,-0.08 -0.19,-0.17 -0.27,-0.27 -1.58,-2 -3.79,-2.56 -6.17,-2.73 -0.58,-0.04 -1.16,-0.01 -1.74,-0.01 -1.16,0 -2.08,0.4 -2.87,1.32 -1.29,1.49 -2.31,1.35 -3.31,-0.33 -0.36,-0.61 -0.66,-1.26 -0.91,-1.92 -1.15,-3.07 -3.53,-4.48 -6.63,-4.9 -1.34,-0.18 -2.7,-0.29 -4.05,-0.34 -0.87,-0.03 -1.61,-0.52 -1.49,-1.62 0.22,-2 0.84,-3.88 2.26,-5.41 0.85,0.16 1.27,0.76 1.72,1.27 2.22,2.53 4.95,4.31 8.06,5.54 0.12,0.05 0.24,0.09 0.36,0.14 2.11,0.95 4.14,0.75 6.08,-0.49 0.82,-0.52 1.62,-1.07 2.46,-1.54 0.84,-0.47 1.71,-0.89 2.6,-1.28 0.46,-0.21 0.98,-0.31 1.55,0.07 z" id="SvgjsPath1047"></path>
		<path d="m 392.9,427.42 c -1.09,0.59 -1.8,0.85 -2.99,0.88 -2.39,0.05 -4.78,0.08 -7.16,0.01 -1.6,-0.05 -2.98,-0.82 -4.19,-1.81 -2.16,-1.77 -3.56,-4.05 -4.2,-6.79 -0.04,-0.19 -0.07,-0.38 -0.09,-0.57 -0.22,-2.32 -1.3,-4.14 -3.1,-5.59 -0.44,-0.36 -0.87,-0.79 -1.17,-1.27 -0.49,-0.77 -0.17,-1.49 0.67,-1.85 1.07,-0.46 2.13,-0.43 3.21,-0.07 0.72,0.24 1.45,0.49 2.13,0.72 0.72,-0.7 -0.04,-1.76 0.77,-2.38 1.03,0.8 1.56,1.92 1.99,3.05 0.91,2.36 2.15,4.53 3.49,6.67 1.46,2.34 3.29,4.3 5.56,5.84 1.28,0.87 2.63,1.63 3.95,2.44 0.37,0.21 0.72,0.45 1.13,0.72 z" id="SvgjsPath1046"></path>
		<path d="m 399.12,404 c -0.62,0.71 -1.39,0.5 -2.06,0.61 -1.01,0.16 -2.06,0.21 -3.03,0.51 -1.31,0.41 -2.41,1.18 -3.03,2.67 0.32,0.14 0.58,0.33 0.85,0.37 0.97,0.13 1.93,0.03 2.84,-0.37 0.47,-0.21 0.95,-0.41 1.43,-0.59 0.81,-0.29 1.2,0.05 1.17,0.92 -0.03,0.61 -0.27,1.12 -0.63,1.58 -0.8,1 -1.86,1.58 -3.07,1.89 -2.09,0.54 -4.21,0.62 -6.33,0.25 -0.88,-0.15 -1.78,-0.36 -2.61,-0.7 -0.88,-0.37 -1.76,-0.83 -2.49,-1.44 -1.34,-1.12 -2.38,-2.52 -3.27,-4.04 -0.6,-1.03 -0.86,-2.17 -0.97,-3.32 -0.23,-2.45 -1.18,-4.59 -2.55,-6.59 -0.47,-0.69 -0.94,-1.39 -1.35,-2.12 -0.34,-0.61 -0.74,-1.21 -0.73,-2.04 1.26,-0.42 2.23,0.18 3.11,0.94 0.43,0.37 0.77,0.87 1.1,1.34 1.73,2.56 3.44,5.14 5.16,7.71 0.43,0.64 0.85,1.31 1.37,1.86 1.29,1.36 2.32,1.51 3.98,0.69 0.75,-0.37 1.48,-0.79 2.25,-1.12 1.94,-0.85 3.96,-1.16 6.04,-0.67 0.8,0.19 1.56,0.58 2.3,0.95 0.24,0.13 0.36,0.48 0.52,0.71 z" id="SvgjsPath1045"></path>
		<path d="m 529.52,231.68 c -0.19,-0.38 -0.43,-0.74 -0.57,-1.14 -0.79,-2.25 -1.54,-4.51 -2.32,-6.75 -0.21,-0.61 -0.48,-1.19 -0.73,-1.79 -1.6,-3.75 -4,-6.89 -7.21,-9.41 -2.49,-1.95 -4.98,-3.89 -7.48,-5.81 -0.51,-0.39 -1.09,-0.68 -1.63,-1.03 -0.25,-0.17 -0.48,-0.37 -0.72,-0.55 1.24,-1.55 3.07,-2.17 4.63,-1.62 0.36,0.13 0.72,0.3 1.04,0.51 3.26,2.08 6.56,4.09 9.57,6.54 2.16,1.76 4.03,3.79 5.71,6.01 2.17,2.86 2.83,6.01 2,9.48 -0.36,1.5 -0.75,2.99 -1.17,4.48 -0.14,0.48 -0.39,0.94 -1.12,1.08 z" id="SvgjsPath1044"></path>
		<path d="m 332.5,368.92 c 1.38,-0.77 2.56,-0.48 3.72,-0.04 1.59,0.6 2.97,1.54 4.28,2.61 0.4,0.33 0.77,0.69 1.18,1 0.84,0.62 1.27,0.59 2.04,-0.1 0.48,-0.43 0.94,-0.88 1.46,-1.27 0.23,-0.18 0.57,-0.22 1,-0.37 0.11,0.39 0.24,0.68 0.25,0.97 0.03,1.03 -0.02,2.07 0.03,3.1 0.11,2.26 0.37,4.5 1.36,6.58 0.13,0.28 0.31,0.54 0.49,0.84 0.74,-0.09 0.91,-0.74 1.32,-1.1 0.36,-0.3 0.7,-0.59 1.29,-0.32 0.07,0.24 0.23,0.54 0.23,0.84 0.03,2.28 0.99,4.25 2.09,6.16 0.61,1.06 1.34,2.05 2.01,3.07 0.32,0.48 0.74,0.98 0.43,1.59 -0.32,0.62 -0.97,0.51 -1.55,0.54 -0.8,0.04 -1.54,-0.21 -2.22,-0.58 -3.91,-2.09 -7.14,-4.85 -8.81,-9.12 -0.28,-0.72 -0.61,-1.42 -0.88,-2.15 -1.81,-4.79 -4.85,-8.62 -8.98,-11.61 -0.22,-0.14 -0.39,-0.32 -0.74,-0.64 z" id="SvgjsPath1043"></path>
		<path d="m 326.16,315.02 c 0.78,0.27 1.33,0.42 1.85,0.65 1.26,0.57 1.55,0.89 1.31,2.22 -0.37,2.14 0.25,3.89 1.56,5.55 3.02,3.82 4.51,8.36 5.82,12.96 0.57,1.98 1.05,3.98 1.18,6.06 0.11,1.85 -0.52,3.38 -1.72,4.95 -0.22,-0.37 -0.43,-0.59 -0.51,-0.85 -0.94,-3.24 -2.36,-6.26 -4.06,-9.16 -0.56,-0.95 -1.08,-1.91 -1.32,-2.99 -0.15,-0.68 -0.46,-1.22 -1.15,-1.42 -1.68,-0.5 -2.4,-1.82 -2.95,-3.32 -0.47,-1.29 -0.72,-2.62 -0.71,-3.98 0.02,-1.99 0.14,-3.99 0.25,-5.98 0.06,-1.09 0.17,-2.18 0.26,-3.27 0.05,-0.39 0.11,-0.76 0.19,-1.42 z" id="SvgjsPath1042"></path>
		<path d="m 437.63,170.56 c -0.41,-1.29 -0.23,-2.25 0.05,-3.16 0.36,-1.17 0.84,-2.3 1.29,-3.44 0.4,-1.02 0.84,-2.02 0.88,-3.15 0.07,-1.67 -0.38,-3.21 -1.23,-4.6 -0.6,-0.98 -1.39,-1.85 -2.13,-2.74 -0.37,-0.45 -0.81,-0.83 -1.19,-1.27 -0.54,-0.63 -0.72,-1.37 -0.52,-2.17 0.52,-2.08 1.36,-4.03 2.6,-5.79 0.35,-0.49 1,-0.43 1.24,0.14 0.22,0.53 0.38,1.1 0.44,1.66 0.11,1.04 -0.14,2.05 -0.45,3.04 -0.15,0.47 -0.27,0.96 -0.43,1.53 0.49,0.12 0.85,0.23 1.21,0.3 2.3,0.42 4.5,1.14 6.56,2.25 2.39,1.29 2.38,1.29 4.69,1.23 0.43,0.42 0.33,0.94 0.22,1.44 -0.31,1.35 -0.95,2.55 -1.88,3.56 -1.13,1.23 -2.33,2.42 -3.55,3.57 -0.89,0.84 -1.88,1.58 -2.81,2.38 -1.52,1.3 -2.98,2.67 -4.14,4.32 -0.17,0.25 -0.42,0.45 -0.85,0.9 z" id="SvgjsPath1041"></path>
		<path d="m 467.61,429.91 c -0.37,-1.03 -0.29,-1.8 0.04,-2.51 0.94,-1.99 0.93,-4.12 0.97,-6.25 0.02,-1.09 0.05,-2.2 0.21,-3.28 0.47,-3.19 2.01,-5.67 4.91,-7.23 1.37,-0.74 2.78,-1.38 4.3,-1.71 3.58,-0.77 6.86,-2.22 9.86,-4.3 1.23,-0.86 2.62,-1.37 4.06,-1.78 0.49,-0.14 0.91,-0.02 1.21,0.38 0.3,0.39 0.33,0.86 0.11,1.28 -0.17,0.34 -0.41,0.67 -0.69,0.92 -0.93,0.8 -1.83,1.64 -2.86,2.3 -1.52,0.97 -3.1,1.85 -4.71,2.67 -1.86,0.95 -3.55,2.1 -4.93,3.68 -0.25,0.29 -0.54,0.56 -0.82,0.82 -0.5,0.45 -1.07,0.76 -1.76,0.59 -1.15,-0.28 -1.84,0.3 -2.41,1.17 -1.6,2.43 -3.15,4.87 -3.67,7.82 -0.25,1.4 -0.68,2.77 -1.62,3.89 -0.37,0.44 -0.78,0.86 -1.23,1.22 -0.22,0.18 -0.57,0.19 -0.97,0.32 z" id="SvgjsPath1040"></path>
		<path d="m 302.1,280.4 c 1.71,-0.71 3.25,-0.37 4.64,0.49 0.87,0.54 1.67,1.22 2.39,1.95 1.55,1.58 2.76,3.41 3.62,5.46 0.9,2.15 1.66,4.35 2.08,6.64 0.44,2.38 0.45,4.76 -0.58,7.02 -0.27,0.58 -0.58,1.16 -0.97,1.67 -0.82,1.05 -1.57,1.15 -2.68,0.45 -0.22,-0.14 -0.42,-0.29 -0.63,-0.46 -1.52,-1.23 -3.22,-2.13 -5.03,-2.86 -1.08,-0.43 -2.15,-0.88 -3.22,-1.34 -0.34,-0.15 -0.66,-0.35 -1.12,-0.61 0.29,-0.32 0.45,-0.62 0.7,-0.74 1.04,-0.52 2.09,-0.99 3.15,-1.46 0.76,-0.34 1.59,-0.56 2.31,-0.98 1.38,-0.79 2.15,-2.01 2.16,-3.65 0,-0.32 0.04,-0.65 -0.01,-0.97 -0.64,-4.18 -2.28,-7.78 -6.03,-10.12 -0.25,-0.15 -0.52,-0.32 -0.78,-0.49 z" id="SvgjsPath1039"></path>
		<path d="m 354.5,377.68 c -1.36,0 -2.44,-0.59 -3.31,-1.5 -0.66,-0.69 -1.19,-1.52 -1.69,-2.34 -0.37,-0.6 -0.62,-1.27 -0.91,-1.92 -1.14,-2.54 -2.99,-4.33 -5.59,-5.33 -1.26,-0.49 -2.53,-0.96 -3.8,-1.41 -1.66,-0.59 -3.18,-1.43 -4.5,-2.59 -0.53,-0.47 -1.01,-0.99 -1.48,-1.52 -0.91,-1.03 -1.3,-2.2 -0.94,-3.58 0.11,-0.43 0.06,-0.92 0.21,-1.33 0.22,-0.6 0.51,-1.18 0.85,-1.71 0.34,-0.54 0.9,-0.72 1.53,-0.59 0.59,0.12 0.81,0.61 0.93,1.12 0.09,0.37 0.09,0.76 0.12,1.15 0.04,0.58 0.03,1.16 0.1,1.74 0.1,0.93 0.65,1.54 1.54,1.78 0.68,0.18 1.39,0.3 2.09,0.39 6.28,0.75 10.41,4.4 13.24,9.8 0.36,0.68 0.63,1.41 0.95,2.11 0.57,1.23 1.17,2.44 2.15,3.42 0.18,0.18 0.33,0.4 0.46,0.62 0.23,0.4 0.11,0.98 -0.32,1.17 -0.52,0.24 -1.09,0.35 -1.63,0.52 z" id="SvgjsPath1038"></path>
		<path d="m 436.18,184.2 c -3.23,-0.08 -6.44,-0.36 -9.62,-0.94 -2.6,-0.48 -5.21,-0.92 -7.82,-1.31 -1.02,-0.15 -2.06,-0.12 -3.09,-0.21 -0.16,-0.01 -0.42,-0.17 -0.44,-0.3 -0.04,-0.22 -0.01,-0.53 0.12,-0.69 0.67,-0.79 1.62,-1.04 2.58,-1.17 1.54,-0.21 3.09,-0.15 4.62,0.15 1.2,0.23 2.41,0.45 3.61,0.68 4.29,0.8 8.49,0.41 12.58,-1.05 2,-0.71 3.95,-1.57 5.94,-2.33 1.08,-0.41 2.18,-0.81 3.29,-1.12 1.4,-0.39 2.81,-0.35 4.19,0.14 0.36,0.13 0.72,0.29 1.04,0.5 0.72,0.49 0.93,1.34 0.4,2.02 -0.42,0.55 -0.98,1.03 -1.56,1.41 -2.12,1.4 -4.45,2.34 -6.86,3.08 -2.92,0.9 -5.93,1.17 -8.98,1.14 z" id="SvgjsPath1037"></path>
		<path d="m 369.78,407.13 c -0.32,-0.3 -0.7,-0.5 -0.82,-0.8 -0.46,-1.13 -0.88,-2.28 -1.24,-3.44 -0.35,-1.16 -0.61,-2.35 -0.93,-3.57 -0.6,-0.05 -1.09,-0.09 -1.54,-0.12 -0.12,-0.15 -0.24,-0.23 -0.27,-0.34 -0.25,-0.93 -0.5,-1.86 -0.72,-2.8 -0.4,-1.69 -1.28,-3.06 -2.63,-4.16 -1.05,-0.85 -2.09,-1.73 -3.06,-2.67 -1.46,-1.41 -2.17,-3.17 -2.09,-5.21 0.02,-0.58 0.11,-1.15 0.76,-1.62 0.33,0.19 0.79,0.33 1.05,0.63 0.5,0.58 0.94,1.23 1.32,1.9 1.24,2.25 3.14,3.72 5.45,4.7 0.95,0.4 1.92,0.74 2.88,1.12 1.77,0.7 3.28,1.78 4.49,3.24 1.63,1.96 1.97,4.15 1.06,6.51 -0.32,0.83 -0.77,1.63 -1.26,2.38 -0.74,1.14 -1.5,2.25 -1.94,3.54 -0.07,0.22 -0.28,0.4 -0.51,0.71 z" id="SvgjsPath1036"></path>
		<path d="m 418.1,72.87 c 0.48,-0.65 0.83,-1.18 1.24,-1.66 0.91,-1.09 1.84,-2.16 2.78,-3.23 2.65,-3.02 4.96,-6.27 6.97,-9.75 1.06,-1.84 2.24,-3.62 3.39,-5.41 0.38,-0.59 0.79,-1.17 1.53,-1.71 0.12,0.2 0.27,0.35 0.3,0.52 0.44,2.56 1.22,5.01 2.37,7.34 0.11,0.23 0.16,0.49 0.28,0.83 -0.22,0.39 -0.4,0.89 -0.73,1.27 -1.04,1.23 -2.05,2.5 -3.21,3.61 -2.33,2.25 -5,4.08 -7.78,5.73 -2.02,1.2 -4.24,1.88 -6.44,2.59 -0.11,0.04 -0.25,-0.03 -0.7,-0.13 z" id="SvgjsPath1035"></path>
		<path d="m 566.49,332.04 c -1.96,1.49 -2.53,3.43 -2.32,5.68 0.08,0.88 0.67,1.36 1.46,1.62 0.55,0.18 1.12,0.28 1.67,0.46 0.45,0.15 0.6,0.75 0.3,1.12 -0.24,0.3 -0.52,0.58 -0.82,0.81 -0.97,0.74 -1.98,1.45 -2.95,2.19 -0.71,0.55 -1.45,1.09 -2.07,1.74 -1.09,1.16 -1.71,2.56 -1.87,4.16 -0.07,0.69 0.03,1.43 -0.56,2.15 -0.15,-0.32 -0.38,-0.57 -0.39,-0.83 -0.03,-0.96 0.09,-1.94 0.01,-2.89 -0.21,-2.31 -0.45,-4.62 -0.77,-6.92 -0.47,-3.47 0,-6.82 1.08,-10.11 0.69,-2.11 2.21,-3.44 4.18,-4.32 0.34,-0.15 0.75,-0.27 1.12,-0.25 0.27,0.01 0.69,0.22 0.76,0.44 0.43,1.28 0.8,2.59 1.14,3.9 0.11,0.37 0.03,0.77 0.03,1.05 z" id="SvgjsPath1034"></path>
		<path d="m 409.82,431.69 c 0.3,0.1 1,0.25 1.61,0.57 0.73,0.39 1.36,0.97 2.08,1.39 0.82,0.49 1.67,0.96 2.55,1.33 1.04,0.44 2.14,0.41 3.22,0.1 0.43,-0.13 0.85,-0.28 1.28,-0.42 0.43,-0.13 0.86,-0.3 1.3,-0.37 1.13,-0.2 1.71,0.37 1.56,1.54 -0.06,0.51 -0.16,1.04 -0.38,1.49 -0.5,1.04 -1.06,2.05 -1.65,3.04 -0.3,0.49 -0.7,0.92 -1.1,1.34 -1.17,1.23 -2.01,2.66 -2.59,4.25 -0.2,0.54 -0.45,1.07 -0.76,1.55 -0.3,0.47 -0.92,0.6 -1.36,0.25 -0.45,-0.35 -0.91,-0.74 -1.2,-1.22 -0.5,-0.82 -0.89,-1.71 -1.27,-2.59 -0.37,-0.89 -0.65,-1.81 -0.99,-2.72 -0.7,-1.88 -1.66,-3.62 -2.87,-5.23 -0.31,-0.41 -0.63,-0.82 -0.9,-1.26 -0.2,-0.32 -0.39,-0.68 -0.49,-1.04 -0.35,-1.19 0.29,-2.01 1.96,-2 z" id="SvgjsPath1033"></path>
		<path d="m 452.59,182.54 c 0.04,-0.8 0.48,-0.97 0.91,-1.1 1.73,-0.51 3.45,-1.11 5.21,-1.46 3.38,-0.67 6.8,-0.61 10.22,-0.16 1.09,0.14 2.17,0.31 3.26,0.44 2.09,0.26 4.12,0.12 6.06,-0.78 0.94,-0.43 1.9,-0.81 2.86,-1.17 0.35,-0.13 0.74,-0.21 1.12,-0.24 0.47,-0.03 0.9,0.34 0.94,0.8 0.03,0.38 0.05,0.79 -0.06,1.15 -0.6,2 -1.59,3.8 -2.81,5.49 -0.08,0.1 -0.17,0.19 -0.27,0.28 -0.39,0.36 -0.81,0.42 -1.22,0.11 -0.31,-0.23 -0.59,-0.5 -0.86,-0.77 -1.04,-1.08 -2.35,-1.6 -3.81,-1.66 -1.22,-0.05 -2.45,0 -3.67,0.14 -1.67,0.19 -3.32,0.46 -4.97,0.76 -2.01,0.37 -4,0.29 -5.95,-0.22 -2.06,-0.54 -4.09,-1.18 -6.24,-1.29 -0.24,-0.02 -0.46,-0.21 -0.72,-0.32 z" id="SvgjsPath1032"></path>
		<path d="m 478.24,174.63 c -0.47,0.43 -0.67,0.68 -0.92,0.85 -2.03,1.28 -4.19,1.97 -6.62,1.49 -0.95,-0.19 -1.91,-0.31 -2.85,-0.53 -0.56,-0.13 -1.1,-0.37 -1.62,-0.62 -0.58,-0.29 -0.68,-0.76 -0.33,-1.28 0.29,-0.42 0.6,-0.81 1,-1.35 -0.4,-0.15 -0.7,-0.4 -0.94,-0.34 -0.68,0.17 -1.36,0.4 -1.98,0.71 -0.63,0.31 -1.2,0.76 -1.81,1.12 -0.94,0.54 -1.85,0.5 -2.69,-0.21 -0.35,-0.29 -0.69,-0.59 -1.01,-0.9 -1.17,-1.11 -2.48,-1.27 -3.93,-0.63 -0.53,0.23 -1.06,0.47 -1.59,0.72 -1.86,0.86 -3.52,0.52 -4.99,-0.86 -0.43,-0.4 -0.83,-0.82 -1.26,-1.21 -0.7,-0.64 -1.5,-0.77 -2.31,-0.25 -0.81,0.52 -1.58,1.11 -2.33,1.71 -0.59,0.48 -1.14,1.02 -1.6,1.44 -0.64,-0.05 -0.69,-0.38 -0.63,-0.7 0.41,-2.34 2.98,-4.75 5.33,-4.99 0.87,-0.09 1.66,0.2 2.38,0.66 0.49,0.31 0.95,0.67 1.43,1 1.26,0.87 2.6,1.08 4.03,0.43 0.53,-0.24 1.07,-0.46 1.6,-0.69 1.07,-0.46 2.14,-0.43 3.19,0.04 0.59,0.26 1.18,0.53 1.74,0.84 1.04,0.58 2.08,0.58 3.15,0.08 0.76,-0.35 1.54,-0.66 2.32,-0.97 1.56,-0.62 3.04,-0.4 4.45,0.45 0.55,0.34 1.11,0.67 1.6,1.09 1.77,1.51 3.78,2.44 6.11,2.66 0.25,0.03 0.49,0.11 1.08,0.24 z" id="SvgjsPath1031"></path>
		<path d="m 442.74,513.89 c -1.07,-2.15 -1.64,-4.01 -1.44,-6.07 0.11,-1.09 0.63,-1.95 1.39,-2.68 0.61,-0.58 1.25,-1.11 1.9,-1.64 2.9,-2.41 4.31,-5.55 4.5,-9.27 0.07,-1.41 0.01,-2.83 0.04,-4.25 0.01,-0.56 -0.12,-1.27 0.51,-1.56 0.73,-0.34 1.41,0.05 1.91,0.57 0.43,0.46 0.81,1.01 1.04,1.6 0.56,1.38 0.89,2.85 0.73,4.34 -0.2,1.79 -0.49,3.57 -0.89,5.32 -0.44,1.91 -1.43,3.58 -2.67,5.09 -0.74,0.89 -1.51,1.77 -2.33,2.58 -1.43,1.41 -2.67,2.96 -3.63,4.73 -0.22,0.36 -0.56,0.64 -1.06,1.24 z" id="SvgjsPath1030"></path>
		<path d="m 625.47,275.31 c 0.09,-0.42 0.1,-0.62 0.18,-0.78 0.88,-1.74 1.98,-3.33 3.37,-4.7 0.59,-0.58 1.3,-1.05 1.98,-1.53 0.69,-0.5 1.43,-0.53 2.18,-0.11 1.46,0.81 3.02,1.49 4.38,2.45 2.9,2.04 5.58,4.37 8.11,6.87 0.5,0.49 0.91,1.09 1.31,1.67 0.12,0.17 0.07,0.46 0.11,0.85 -0.5,-0.06 -0.88,-0.06 -1.22,-0.17 -2.57,-0.84 -5.15,-1.67 -7.7,-2.55 -3.63,-1.24 -7.35,-1.91 -11.19,-1.91 -0.45,-0.01 -0.89,-0.06 -1.51,-0.09 z" id="SvgjsPath1029"></path>
		<path d="m 304.86,309.77 c -0.45,0.1 -0.81,0.18 -1.33,0.3 -0.26,-0.35 -0.6,-0.73 -0.84,-1.15 -0.76,-1.32 -1.69,-2.43 -3.23,-2.87 -0.1,-0.03 -0.16,-0.19 -0.24,-0.29 -0.07,-0.4 0.22,-0.54 0.5,-0.69 1.16,-0.62 2.38,-0.55 3.58,-0.24 0.99,0.25 1.96,0.64 2.92,1 1.02,0.38 2.02,0.86 3.05,1.2 1.03,0.34 2.1,0.57 3.16,0.85 0.49,0.13 0.99,0.25 1.39,0.36 0.47,0.53 0.43,1.06 0.3,1.55 -1.03,3.86 -2.25,7.66 -4.19,11.18 -0.5,0.9 -1.06,1.77 -2,2.31 -0.37,0.21 -0.85,-0.02 -0.86,-0.44 -0.01,-0.38 0.04,-0.77 0.08,-1.15 0.28,-2.85 0.19,-5.66 -0.7,-8.41 -0.36,-1.17 -0.76,-2.33 -1.59,-3.51 z" id="SvgjsPath1028"></path>
		<path d="m 569.75,315.08 c -0.29,0.49 -0.38,0.81 -0.6,0.99 -2.25,1.8 -3.89,4.1 -5.49,6.45 -1.29,1.9 -1.61,1.8 -3.29,0.99 -0.06,-0.03 -0.12,-0.03 -0.34,-0.08 -0.3,0.28 -0.72,0.58 -1.03,0.97 -0.52,0.66 -0.97,1.37 -1.43,2.06 -1.33,1.99 -3.1,3.42 -5.35,4.27 -0.36,0.14 -0.72,0.28 -1.08,0.42 -0.85,0.35 -1.58,0.86 -2.11,1.63 -0.25,0.37 -0.53,0.73 -0.84,1.06 -0.41,0.43 -1.09,0.27 -1.21,-0.32 -0.13,-0.62 -0.2,-1.28 -0.12,-1.9 0.28,-2.3 2.12,-4.45 4.55,-5.36 0.36,0.28 0.75,0.59 1.13,0.88 0.15,-0.06 0.32,-0.07 0.37,-0.15 0.31,-0.56 0.6,-1.14 0.9,-1.71 2.07,-3.91 5.09,-6.77 9.26,-8.33 1.63,-0.61 3.28,-1.14 4.94,-1.66 0.47,-0.15 0.99,-0.13 1.74,-0.21 z" id="SvgjsPath1027"></path>
		<path d="m 337.01,229.96 c 0.15,1.46 -0.29,6.4 -0.57,7.33 -0.46,1.53 -1.3,2.8 -2.53,3.8 -0.8,0.65 -1.65,1.24 -2.46,1.87 -1.22,0.95 -2.46,1.88 -3.62,2.9 -1.57,1.38 -2.83,3 -3.41,5.06 -0.03,0.12 -0.07,0.25 -0.12,0.37 -0.32,0.75 -0.73,0.94 -1.54,0.71 -0.25,-0.07 -0.48,-0.18 -0.72,-0.28 -1.14,-0.49 -2.17,-1.14 -3.07,-1.98 -0.33,-0.3 -0.65,-0.64 -0.87,-1.02 -0.51,-0.88 -0.25,-1.82 0.65,-2.3 0.45,-0.24 0.94,-0.42 1.43,-0.57 0.61,-0.2 1.25,-0.32 1.86,-0.53 1.51,-0.52 2.75,-1.38 3.53,-2.83 0.21,-0.4 0.45,-0.78 0.7,-1.15 0.48,-0.72 1.1,-1.25 1.98,-1.44 0.13,-0.03 0.24,-0.1 0.37,-0.11 2.75,-0.37 4.31,-2.1 5.21,-4.58 0.31,-0.85 0.65,-1.68 1.03,-2.5 0.46,-0.98 1.05,-1.89 2.15,-2.75 z" id="SvgjsPath1026"></path>
		<path d="m 329.99,350.41 c -0.12,-0.44 -0.23,-0.8 -0.33,-1.16 -1.02,-3.8 -3.14,-6.73 -6.74,-8.49 -1.04,-0.51 -2.08,-1.02 -3.13,-1.52 -1.25,-0.59 -2.27,-1.45 -3.15,-2.5 -0.77,-0.91 -1.21,-1.96 -1.35,-3.15 -0.23,-1.97 1.18,-3.89 3.12,-4.26 0.86,-0.16 1.67,0.07 2.45,0.35 1.69,0.6 2.96,1.78 4.09,3.13 0.07,0.09 0.1,0.24 0.1,0.36 0,0.12 -0.06,0.24 -0.12,0.46 -1.16,0.31 -2.34,0.26 -3.53,-0.11 -0.55,-0.17 -1.1,-0.34 -1.67,-0.46 -0.37,-0.08 -0.77,0.45 -0.57,0.78 0.29,0.49 0.59,1.02 1.02,1.36 0.71,0.54 1.51,0.97 2.3,1.4 2.28,1.23 4.4,2.67 6.19,4.57 1.16,1.23 2.15,2.57 2.87,4.1 0.27,0.57 0.48,1.2 0.6,1.82 0.25,1.34 -0.37,2.37 -1.38,3.19 -0.15,0.13 -0.46,0.08 -0.77,0.13 z" id="SvgjsPath1025"></path>
		<path d="m 323.34,329.03 c -1.1,-0.82 -1.93,-1.87 -2.81,-2.87 -0.47,-0.53 -0.9,-1.09 -1.38,-1.62 -0.39,-0.43 -0.87,-0.51 -1.41,-0.27 -0.71,0.32 -1.4,0.66 -2.12,0.93 -1.85,0.69 -3.67,0.61 -5.42,-0.33 -0.21,-0.11 -0.38,-0.31 -0.67,-0.55 0.42,-0.41 0.75,-0.8 1.14,-1.11 4.23,-3.37 6.37,-7.87 7.01,-13.13 0.16,-1.33 -0.04,-2.7 -0.1,-4.05 -0.02,-0.44 -0.16,-0.9 0.38,-1.29 0.18,0.33 0.36,0.64 0.51,0.96 0.41,0.88 0.74,1.79 1.21,2.63 0.62,1.11 0.87,2.28 0.87,3.53 0,0.97 0.04,1.94 -0.03,2.9 -0.32,4.55 0.54,8.85 2.58,12.93 0.18,0.39 0.58,0.75 0.24,1.34 z" id="SvgjsPath1024"></path>
		<path d="m 447.53,414.26 c 0.61,0.05 1.19,-0.01 1.48,0.52 0.31,0.57 0.18,1.16 -0.25,1.61 -0.53,0.55 -1.09,1.09 -1.71,1.55 -0.72,0.53 -1.52,0.97 -2.29,1.44 -2.13,1.32 -3.46,3.25 -4.16,5.61 -0.6,1.99 -0.83,4.03 -0.74,6.11 0.05,1.03 0.06,2.06 0.05,3.09 0,0.38 -0.06,0.77 -0.16,1.14 -0.17,0.62 -0.81,0.89 -1.38,0.63 -2.03,-0.9 -3.09,-2.88 -2.48,-5.07 0.49,-1.78 0.57,-3.54 0.41,-5.35 -0.06,-0.7 -0.05,-1.41 -0.04,-2.12 0.01,-1.86 0.82,-3.36 2.16,-4.58 2.28,-2.07 4.94,-3.47 7.88,-4.37 0.42,-0.14 0.88,-0.15 1.23,-0.21 z" id="SvgjsPath1023"></path>
		<path d="m 528.23,205.32 c -0.71,-0.18 -1.09,0.23 -1.47,0.55 -1.11,0.95 -2.33,0.98 -3.62,0.48 -2,-0.78 -3.73,-2.01 -5.47,-3.22 -0.56,-0.39 -0.45,-1.1 0.15,-1.42 0.64,-0.35 1.34,-0.44 2.06,-0.4 0.84,0.04 1.68,0.01 2.5,0.13 1.44,0.21 2.86,0.07 4.19,-0.39 1.93,-0.67 3.55,-0.24 4.98,1.1 0.74,0.7 1.45,1.46 2.04,2.3 0.68,0.97 0.78,2.08 -0.06,3.03 -0.82,0.93 -0.73,1.84 -0.28,2.86 0.21,0.46 0.37,0.97 0.43,1.47 0.15,1.13 -0.38,2.04 -1.43,2.46 -1.22,0.49 -1.93,0.12 -2.26,-0.99 -0.11,-0.37 -0.19,-0.75 -0.29,-1.12 -0.18,-0.69 -0.31,-1.38 -0.53,-2.05 -0.52,-1.58 -1.26,-3.09 -0.94,-4.79 z" id="SvgjsPath1022"></path>
		<path d="m 444.18,540.44 c -0.21,-0.6 -0.42,-0.94 -0.44,-1.29 -0.09,-1.7 -0.45,-3.31 -1.22,-4.83 -0.25,-0.5 -0.26,-0.99 -0.04,-1.49 0.27,-0.58 0.52,-1.18 0.86,-1.72 0.38,-0.59 0.82,-1.17 1.31,-1.67 1.69,-1.7 2.68,-3.76 3.2,-6.07 0.08,-0.38 0.15,-0.76 0.25,-1.13 0.08,-0.31 0.18,-0.62 0.3,-0.92 0.2,-0.49 0.45,-0.97 1.07,-0.95 0.59,0.01 0.96,0.44 1.11,0.94 0.25,0.79 0.47,1.61 0.55,2.43 0.15,1.47 0.09,2.97 0.29,4.43 0.44,3.28 -0.77,5.92 -3,8.21 -1.03,1.06 -2.06,2.14 -3.1,3.19 -0.25,0.26 -0.58,0.45 -1.14,0.87 z" id="SvgjsPath1021"></path>
		<path d="m 552.51,245.02 c -1.65,-0.36 -2.61,-1.58 -3.84,-2.83 0.47,-0.17 0.73,-0.32 1.01,-0.35 2.07,-0.19 3.96,0.31 5.66,1.54 0.63,0.45 1.28,0.87 1.88,1.36 0.85,0.69 1.69,0.82 2.67,0.27 0.56,-0.31 1.17,-0.53 1.78,-0.74 0.36,-0.13 0.75,-0.2 1.13,-0.23 0.64,-0.04 1.34,-0.11 1.78,0.48 0.48,0.65 0.03,1.24 -0.31,1.78 -0.69,1.09 -1.42,2.15 -2.14,3.22 -1.15,1.71 -2.29,3.43 -3.45,5.14 -0.91,1.33 -1.69,1.55 -2.4,-0.17 -0.72,-1.74 -1.71,-3.32 -2.76,-4.87 -0.22,-0.32 -0.41,-0.66 -0.63,-0.98 -0.66,-0.96 -1.01,-1.94 -0.33,-3.06 0.08,-0.12 -0.02,-0.35 -0.05,-0.56 z" id="SvgjsPath1020"></path>
		<path d="m 348.97,195.54 c 0.39,0.35 0.66,0.52 0.84,0.76 1.11,1.47 2.66,1.92 4.4,2 1.09,0.05 2.18,0.14 3.26,0.29 0.33,0.04 0.62,0.33 0.9,0.49 -0.09,0.25 -0.1,0.42 -0.19,0.48 -1.11,0.73 -1.34,1.69 -1.11,2.99 0.27,1.54 -0.34,2.94 -1.43,4.04 -2.14,2.15 -4.73,3.27 -7.8,3.16 -0.44,-0.02 -0.89,-0.14 -1.31,-0.28 -0.75,-0.25 -0.94,-0.59 -0.77,-1.3 0.12,-0.5 0.29,-0.99 0.43,-1.48 0.22,-0.76 0.66,-1.23 1.5,-1.23 0.32,0 0.65,-0.04 0.96,-0.11 1.43,-0.36 2.2,-1.68 1.79,-3.12 -0.1,-0.37 -0.28,-0.72 -0.46,-1.06 -0.18,-0.34 -0.4,-0.66 -0.6,-0.99 -1.08,-1.78 -1.13,-2.22 -0.41,-4.64 z" id="SvgjsPath1019"></path>
		<path d="m 199.09,292.08 c 0.77,-0.76 1.55,-0.89 2.27,-1.13 2.32,-0.77 4.66,-1.5 6.99,-2.25 0.68,-0.22 1.34,-0.48 2.13,-0.11 0.71,2.07 1.38,4.22 2.18,6.31 0.81,2.09 1.75,4.13 2.69,6.31 -0.3,0.07 -0.56,0.23 -0.73,0.16 -0.65,-0.26 -1.31,-0.55 -1.91,-0.92 -3.3,-2.03 -6.57,-4.08 -9.86,-6.12 -1.2,-0.74 -2.43,-1.45 -3.76,-2.25 z" id="SvgjsPath1018"></path>
		<path d="m 319.43,341.6 c 0.75,-0.22 1.3,0.19 1.77,0.59 2.26,1.93 4.34,4.03 5.8,6.65 0.25,0.45 0.43,0.94 0.6,1.42 0.27,0.76 0.28,1.53 -0.24,2.2 -0.67,0.88 -0.75,1.89 -0.71,2.93 0.03,0.77 0.11,1.55 0.05,2.31 -0.04,0.63 -0.16,1.28 -0.39,1.87 -0.36,0.92 -1.09,1.38 -2.13,1.33 -1.02,-0.05 -1.89,-0.62 -2.18,-1.59 -0.16,-0.54 -0.16,-1.13 -0.19,-1.7 -0.01,-0.25 0.05,-0.51 0.13,-0.76 0.68,-2.25 0.35,-4.43 -0.27,-6.64 -0.61,-2.17 -1.09,-4.36 -2.06,-6.41 -0.34,-0.69 -0.54,-1.43 -0.18,-2.2 z" id="SvgjsPath1017"></path>
		<path d="m 514.97,403.55 c -1.81,-0.27 -2.96,0.32 -3.68,1.75 -0.17,0.34 -0.31,0.71 -0.47,1.06 -1.13,2.44 -3.05,4.11 -5.37,5.35 -0.38,0.2 -0.85,0.27 -1.29,0.29 -0.2,0.01 -0.49,-0.2 -0.59,-0.39 -0.09,-0.19 -0.04,-0.5 0.06,-0.7 0.11,-0.22 0.33,-0.39 0.54,-0.54 1.34,-0.93 2.03,-2.3 2.57,-3.77 0.26,-0.73 0.43,-1.48 0.67,-2.22 0.47,-1.46 1.35,-2.61 2.63,-3.47 1.52,-1.02 3.2,-1.65 4.99,-1.98 1.39,-0.26 2.79,-0.47 4.2,-0.68 0.38,-0.06 0.77,-0.07 1.15,-0.03 0.6,0.06 0.82,0.67 0.44,1.14 -0.08,0.1 -0.16,0.21 -0.26,0.28 -0.9,0.59 -1.14,1.48 -1.23,2.49 -0.17,1.86 -1.33,3 -2.95,3.75 -0.17,0.08 -0.36,0.13 -0.55,0.17 -0.37,0.07 -0.83,-0.23 -0.85,-0.6 -0.04,-0.58 -0.01,-1.15 -0.01,-1.9 z" id="SvgjsPath1016"></path>
		<path d="m 443.04,446.12 c -1.54,0 -2.23,-0.73 -1.99,-1.98 0.14,-0.74 0.43,-1.5 0.82,-2.15 0.52,-0.89 1.14,-1.72 1.8,-2.51 1.19,-1.45 2.35,-2.9 3.28,-4.54 0.28,-0.5 0.68,-0.94 1.08,-1.34 0.28,-0.28 0.73,-0.4 1.06,-0.14 0.21,0.16 0.28,0.53 0.36,0.82 0.04,0.18 -0.02,0.39 -0.06,0.57 -0.42,1.78 0.26,3.15 1.61,4.26 0.45,0.37 0.92,0.71 1.33,1.12 0.36,0.36 0.71,0.76 0.95,1.2 0.45,0.83 0.19,1.7 -0.64,2.15 -0.5,0.27 -1.06,0.51 -1.62,0.6 -2.24,0.36 -4.4,0.98 -6.56,1.63 -0.55,0.16 -1.13,0.25 -1.42,0.31 z" id="SvgjsPath1015"></path>
		<path d="m 519.28,374.18 c -0.01,-1.75 0.48,-2.93 1.28,-3.96 0.59,-0.76 1.28,-1.44 1.96,-2.12 0.68,-0.69 1.41,-1.32 2.1,-2 1.97,-1.95 3.23,-4.31 3.98,-6.96 0.2,-0.72 0.22,-1.54 0.86,-2.02 0.69,0.02 1,0.45 1.26,0.89 1.07,1.84 1.53,3.82 1.23,5.94 -0.26,1.81 -1.15,3.28 -2.65,4.31 -0.9,0.61 -1.87,1.12 -2.85,1.61 -0.8,0.4 -1.65,0.71 -2.49,1.04 -1.33,0.53 -2.53,1.26 -3.55,2.28 -0.28,0.26 -0.57,0.49 -1.13,0.99 z" id="SvgjsPath1014"></path>
		<path d="m 407.99,160.1 c 0.01,1.32 -0.49,2.08 -1.46,2.36 -0.68,0.2 -1.38,0.33 -2.08,0.39 -1.77,0.14 -3.17,0.94 -4.39,2.18 -0.54,0.55 -1.1,1.09 -1.73,1.52 -0.71,0.48 -1.44,0.06 -1.48,-0.8 -0.02,-0.38 0,-0.78 0.11,-1.14 0.67,-2.22 1.48,-4.39 2.79,-6.33 0.65,-0.97 1.48,-1.78 2.5,-2.37 0.66,-0.38 1.33,-0.46 2.02,-0.08 1.32,0.73 2.43,1.7 3.22,2.98 0.29,0.47 0.41,1.06 0.5,1.29 z" id="SvgjsPath1013"></path>
		<path d="m 447.51,83.24 c -0.15,0.81 -0.33,1.88 -0.54,2.95 -0.15,0.76 -0.4,1.49 -0.53,2.25 -0.23,1.41 -0.26,2.81 0.3,4.18 0.19,0.47 0.31,0.98 0.38,1.48 0.08,0.59 -0.28,0.98 -0.89,1.01 -2.64,0.12 -3.95,-1.08 -4.46,-3.77 -0.15,-0.82 -0.06,-1.66 0.26,-2.47 0.72,-1.8 1.17,-3.66 1.37,-5.6 0.14,-1.34 0.54,-2.65 1.26,-3.82 0.4,-0.66 1.01,-0.73 1.62,-0.22 0.7,0.57 0.94,1.36 1.07,2.2 0.08,0.5 0.1,1.01 0.16,1.81 z" id="SvgjsPath1012"></path>
		<path d="m 523.8,397.11 c -0.7,-0.26 -0.52,-1 -0.87,-1.51 -0.35,0.22 -0.7,0.43 -1.19,0.73 -0.37,-1.42 -0.31,-2.67 0.08,-3.92 0.74,-2.37 2.2,-4.22 4.21,-5.63 0.58,-0.41 1.21,-0.74 1.83,-1.08 1.58,-0.88 3.17,-1.74 4.74,-2.61 0.51,-0.28 1,-0.59 1.63,-0.51 0.38,0.05 0.72,0.41 0.62,0.81 -0.07,0.3 -0.18,0.63 -0.39,0.85 -0.35,0.37 -0.78,0.67 -1.19,0.98 -0.72,0.54 -1.46,1.06 -2.19,1.6 -1.85,1.39 -3.19,3.14 -4.01,5.33 -0.52,1.38 -1.27,2.67 -1.97,3.97 -0.27,0.5 -0.63,1 -1.3,0.99 z" id="SvgjsPath1011"></path>
		<path d="m 440.97,512.8 c 1.58,3.64 3.03,6.93 3.36,10.57 0.22,2.4 -0.98,5.18 -2.9,6.78 -0.12,-0.31 -0.27,-0.57 -0.31,-0.85 -0.05,-0.31 -0.02,-0.64 0.01,-0.97 0.12,-1.38 -0.17,-2.68 -0.7,-3.96 -0.47,-1.13 -0.91,-2.27 -1.32,-3.43 -0.45,-1.25 -0.47,-2.54 -0.12,-3.81 0.39,-1.42 0.95,-2.78 1.98,-4.33 z" id="SvgjsPath1010"></path>
		<path d="m 362.1,406.66 c -0.36,-0.19 -0.73,-0.26 -0.85,-0.47 -0.49,-0.83 -1.02,-1.66 -1.33,-2.56 -0.8,-2.32 -2.35,-3.95 -4.38,-5.23 -1.09,-0.69 -2.2,-1.35 -3,-2.41 -0.33,-0.43 -0.33,-0.43 -0.37,-1.52 0.32,0.04 0.64,0.01 0.9,0.12 0.78,0.31 1.53,0.68 2.29,1.02 0.96,0.43 1.95,0.6 3.01,0.58 0.95,-0.02 1.61,-0.36 1.91,-1.3 0.07,-0.23 0.22,-0.43 0.37,-0.71 0.22,0.15 0.45,0.21 0.49,0.34 0.65,2.02 1.43,3.99 1.71,6.12 0.27,2.05 -0.17,3.94 -0.75,6.02 z" id="SvgjsPath1009"></path>
		<path d="m 456.14,452.85 c 0.68,-0.21 0.95,0.11 1.13,0.44 1.56,2.83 2.83,5.79 3.84,8.85 0.09,0.28 0.01,0.63 0.01,0.87 -0.49,0.62 -1.11,0.55 -1.67,0.51 -1.07,-0.07 -1.87,0.39 -2.55,1.13 -0.52,0.57 -1.02,1.17 -1.55,1.73 -0.65,0.7 -1.33,1.38 -2.39,1.82 -0.12,-0.39 -0.28,-0.67 -0.28,-0.95 -0.01,-1.27 0.47,-2.39 1.13,-3.45 0.86,-1.38 1.5,-2.84 1.92,-4.42 0.39,-1.45 0.55,-2.91 0.42,-4.4 -0.06,-0.69 -0.01,-1.4 -0.01,-2.13 z" id="SvgjsPath1008"></path>
		<path d="m 459.63,163.1 c 0.61,-0.34 1.09,-0.17 1.55,0.07 0.57,0.29 1.14,0.6 1.71,0.89 1.9,0.95 3.9,1.29 6,0.94 1.08,-0.18 2.15,-0.4 3.22,-0.61 0.44,-0.09 0.88,-0.22 1.32,-0.27 1.05,-0.1 1.73,0.34 1.93,1.18 0.21,0.93 -0.22,1.89 -1.13,2.19 -0.59,0.2 -1.28,0.35 -1.88,0.25 -2.57,-0.43 -5.13,-0.27 -7.7,-0.12 -0.83,0.05 -1.67,-0.01 -2.5,-0.06 -0.75,-0.05 -1.39,-0.43 -1.76,-1.06 -0.6,-1.05 -1.05,-2.18 -0.76,-3.4 z" id="SvgjsPath1007"></path>
		<path d="m 325.91,364.11 c 0.86,-0.03 1.69,0 2.5,-0.11 0.74,-0.1 1.46,-0.36 2.28,-0.58 0.12,0.46 0.29,0.82 0.29,1.18 0.04,3 0.68,5.87 1.78,8.65 0.24,0.62 0.67,1.27 0.35,2.01 -0.73,0.18 -1.1,-0.35 -1.51,-0.71 -2.02,-1.75 -3.76,-3.73 -4.75,-6.25 -0.51,-1.29 -1.16,-2.58 -0.94,-4.19 z" id="SvgjsPath1006"></path>
		<path d="m 337.42,218.4 c 0.32,1.15 0.2,2.23 -0.16,3.28 -0.35,1.03 -0.79,2.03 -1.19,3.05 -0.66,1.67 -1.32,3.34 -1.99,5.01 -0.38,0.95 -0.73,1.92 -1.21,2.83 -0.26,0.49 -0.71,0.9 -1.15,1.25 -0.48,0.38 -1.08,0.16 -1.2,-0.41 -0.17,-0.81 -0.29,-1.62 -0.15,-2.48 0.42,-2.55 1.49,-4.76 3.21,-6.68 0.13,-0.14 0.27,-0.28 0.4,-0.42 1.29,-1.31 2.26,-2.79 2.65,-4.61 0.07,-0.35 0.05,-0.81 0.79,-0.82 z" id="SvgjsPath1005"></path>
		<path d="m 545.16,221.67 c -0.39,0.03 -0.74,0.17 -0.99,0.06 -1.48,-0.6 -3.02,-0.6 -4.58,-0.58 -2.25,0.03 -3.96,-1.01 -5.29,-2.73 -0.35,-0.45 -0.61,-0.99 -0.85,-1.51 -0.21,-0.47 -0.39,-1.02 0.08,-1.43 0.45,-0.4 1,-0.19 1.46,0.02 0.46,0.21 0.93,0.47 1.31,0.81 1.36,1.22 2.97,1.78 4.74,1.95 0.98,0.1 1.91,0.41 2.69,1 0.5,0.38 0.93,0.88 1.3,1.4 0.16,0.22 0.09,0.6 0.13,1.01 z" id="SvgjsPath1004"></path>
		<path d="m 358.19,195.26 c 0.05,-0.2 0.05,-0.35 0.12,-0.44 2.78,-3.21 7.14,-4.33 11.01,-2.82 0.35,0.14 0.7,0.33 1,0.55 0.12,0.09 0.21,0.35 0.17,0.5 -0.03,0.15 -0.22,0.35 -0.37,0.37 -0.44,0.06 -0.9,0.08 -1.34,0.05 -0.94,-0.05 -1.76,0.23 -2.51,0.79 -0.46,0.35 -0.94,0.68 -1.43,0.98 -1.96,1.17 -4,1.25 -6.1,0.42 -0.2,-0.08 -0.38,-0.27 -0.55,-0.4 z" id="SvgjsPath1003"></path>
		<path d="m 370.94,418.32 c -0.81,-1.03 -1.79,-1.64 -2.8,-2.21 -1.71,-0.96 -2.87,-2.4 -3.46,-4.24 -0.49,-1.53 -0.82,-3.1 -1.2,-4.66 -0.06,-0.23 0.02,-0.5 0.04,-0.81 0.23,0.04 0.46,0 0.57,0.1 1.48,1.34 2.9,2.74 3.89,4.51 0.47,0.84 1.02,1.64 1.54,2.45 0.85,1.33 1.31,2.79 1.53,4.33 0.02,0.17 -0.07,0.36 -0.11,0.53 z" id="SvgjsPath1002"></path>
		<path d="m 393.68,173.11 c 0.6,0 1.05,-0.08 1.46,0.01 1.92,0.42 3.8,0.37 5.71,-0.14 0.85,-0.23 1.77,-0.26 2.66,-0.24 1.27,0.02 1.38,1.07 0.77,1.89 -0.55,0.74 -1.31,1.27 -2.22,1.42 -2.94,0.48 -5.62,-0.1 -7.92,-2.07 -0.2,-0.17 -0.27,-0.5 -0.46,-0.87 z" id="SvgjsPath1001"></path>
		<path d="m 541.72,223.09 c 1.64,0.23 3.05,0.8 4.13,2 0.21,0.23 0.35,0.54 0.46,0.83 0.17,0.44 -0.28,0.94 -0.73,0.85 -0.12,-0.03 -0.26,-0.04 -0.37,-0.09 -1.27,-0.62 -2.53,-1.24 -3.79,-1.87 -0.22,-0.11 -0.43,-0.28 -0.62,-0.45 -0.35,-0.32 -0.22,-0.94 0.24,-1.09 0.24,-0.09 0.5,-0.13 0.68,-0.18 z" id="SvgjsPath1000"></path>
	</g>
</g>
</svg><style>@media (prefers-color-scheme: light) { :root { filter: none; } }
@media (prefers-color-scheme: dark) { :root { filter: invert(100%); } }
</style></svg>